<svg width="40" height="42" viewBox="0 0 40 42" fill="none" xmlns="http://www.w3.org/2000/svg">
<path d="M38.923 27.6808C35.9565 27.643 32.9901 27.6808 30.0425 27.6619C29.3056 27.6619 29.0411 27.9454 29.0789 28.6633C29.1167 29.6648 29.0978 30.6095 29.0978 31.7432C27.6429 31.7432 26.3769 31.7432 25.4322 31.7432C25.5078 30.0427 25.6401 28.4744 25.6401 26.8873C25.659 22.1069 26.0935 22.9005 21.7855 21.011C20.8408 20.5953 20.5196 20.123 20.5952 19.0838C20.7652 16.344 20.8408 13.5854 20.8786 10.8457C20.8975 8.54053 18.9513 7.02896 17.1375 8.14375C14.5678 9.7309 12.0359 11.4692 10.7133 14.3979C10.0331 15.8906 9.29617 17.3643 8.67264 18.6492C7.57675 18.7248 6.76429 17.4588 6.14076 18.857C5.55503 20.1419 4.9126 21.4078 4.42134 22.7304C4.30798 23.0327 4.5914 23.7696 4.87482 23.9019C6.66981 24.8088 8.50259 25.6402 10.3732 26.4149C10.6755 26.5471 11.4124 26.2826 11.5635 25.9992C12.2437 24.7522 12.8295 23.4673 13.3396 22.1447C13.453 21.8235 13.2074 21.0677 12.9617 20.9732C12.0548 20.6331 11.8658 19.9529 12.1304 19.2538C12.7917 17.61 13.5664 16.0039 14.341 14.3979C14.4544 14.1522 14.8134 14.0389 15.0213 13.8877C15.0213 15.815 15.0401 17.6667 15.0213 19.4994C14.9835 21.4834 15.4747 22.3147 17.2508 23.1083C18.4223 23.6374 19.5749 24.2231 20.7841 24.6766C21.6533 24.9978 21.9178 25.489 21.9178 26.396C21.9178 28.1532 22.0501 29.9104 22.1445 31.781C21.8044 31.781 21.1242 31.8188 20.4629 31.7621C19.6315 31.6865 19.2914 32.0266 19.3481 32.8769C19.4048 33.8405 19.367 34.7285 19.367 35.8622C18.0633 35.8622 16.8918 35.8622 15.7015 35.8622C16.0227 35.2954 16.4195 35.012 16.5139 34.5963C17.1374 31.7054 17.7043 28.7956 18.29 25.9047C18.4223 25.2245 18.12 24.9033 17.5154 24.6388C16.5895 24.242 15.6826 23.7507 14.7378 23.2784C14.5867 24.771 14.5111 26.2826 14.2466 27.7564C13.982 29.268 13.5853 30.7607 13.1885 32.2533C12.8484 33.5382 12.6027 34.7474 14.0198 35.8811C13.1318 35.8811 12.5272 35.8811 11.9414 35.8811C9.59849 35.8811 9.63628 35.9 9.63628 38.1863C9.63628 38.772 9.63628 39.3577 9.63628 40.019C6.61313 40.019 3.93009 40.0001 1.19036 40.0379C0.793573 40.0379 0.396788 40.4347 0 40.6426C0.415683 40.8315 0.81247 41.1905 1.22815 41.2094C3.96788 41.2661 6.72649 41.2094 9.46622 41.2472C10.4865 41.2661 10.8644 40.8504 10.8266 39.8679C10.7888 38.9798 10.8266 38.0918 10.8266 37.1282C13.7175 37.1282 16.4195 37.0904 19.1025 37.1471C20.1984 37.1659 20.7085 36.8447 20.6141 35.6733C20.5385 34.823 20.5952 33.9727 20.5952 33.0658C21.162 33.028 21.5777 32.9902 21.9934 32.9902C23.9773 32.9902 25.9424 32.9902 27.9263 32.9902C30.4015 32.9902 30.4015 32.9902 30.4015 30.5717C30.4015 30.0427 30.4015 29.4947 30.4015 28.8712C33.3869 28.8712 36.1833 28.8901 38.9608 28.8523C39.3198 28.8523 39.6599 28.4555 40 28.2477C39.5654 28.0398 39.2442 27.6808 38.923 27.6808Z" fill="white"/>
<path d="M18.3657 7.48229C20.4441 7.50118 22.1068 5.81956 22.1068 3.74114C22.1068 1.60605 20.5196 0 18.3845 0C16.2683 0 14.6434 1.60605 14.6434 3.72225C14.6245 5.78177 16.2872 7.46339 18.3657 7.48229Z" fill="white"/>
<path d="M22.0879 16.6462C22.1068 16.9296 22.5414 17.4398 22.7681 17.4209C24.1285 17.402 25.5078 17.3075 26.8494 17.1374C27.7374 17.0241 28.1909 16.3817 28.0775 15.4747C27.983 14.6433 27.454 14.1899 26.6037 14.171C26.2636 14.171 25.9046 14.1521 25.5834 14.2277C24.1663 14.5489 23.0893 14.2088 22.5225 12.7539C22.5036 12.6972 22.3902 12.6783 22.0501 12.4705C22.069 14.0198 22.0123 15.3424 22.0879 16.6462Z" fill="white"/>
</svg>
