<svg width="30" height="36" viewBox="0 0 30 36" fill="none" xmlns="http://www.w3.org/2000/svg">
<path d="M25.0815 18.8712C25.0644 15.9442 26.3906 13.7382 29.0687 12.1116C27.5708 9.96567 25.3047 8.78541 22.3176 8.55794C19.4893 8.33476 16.3948 10.206 15.2618 10.206C14.0644 10.206 11.3262 8.63519 9.17167 8.63519C4.72532 8.70386 0 12.1803 0 19.2532C0 21.3433 0.381974 23.5021 1.14592 25.7253C2.16738 28.6524 5.84978 35.824 9.69099 35.7082C11.6996 35.6609 13.1202 34.2833 15.7339 34.2833C18.2704 34.2833 19.5837 35.7082 21.824 35.7082C25.6996 35.6524 29.03 29.133 30 26.1974C24.8026 23.7468 25.0815 19.0215 25.0815 18.8712ZM24.6266 30.3305C24.0129 31.1845 23.3949 31.8584 22.8283 32.2918C22.3777 32.6352 22.03 32.7811 21.7983 32.7897C21.412 32.7854 21.0386 32.691 20.309 32.412C20.2575 32.3906 20.2017 32.3691 20.1288 32.3433L19.9399 32.2704C19.1931 31.9828 18.7468 31.8283 18.176 31.6781C17.3777 31.4721 16.5837 31.3605 15.7339 31.3605C14.867 31.3605 14.0515 31.4678 13.2403 31.6695C12.6438 31.8197 12.1416 31.9871 11.4077 32.2618C11.3777 32.2747 11.0601 32.3948 10.97 32.4292C10.8197 32.485 10.7039 32.5279 10.5966 32.5665C10.1502 32.721 9.86695 32.7854 9.61373 32.7897C9.58369 32.7897 9.55794 32.7854 9.53648 32.7811C9.48927 32.7725 9.42918 32.7554 9.36052 32.7253C9.16738 32.6481 8.93562 32.5064 8.67382 32.3047C8.07296 31.8369 7.41202 31.103 6.7382 30.1631C5.55794 28.5064 4.44206 26.309 3.90558 24.7682C3.24464 22.8455 2.91845 21.0043 2.91845 19.2489C2.91845 16.6652 3.6824 14.6996 4.99571 13.3648C6.12446 12.2232 7.64378 11.5837 9.19313 11.5494C9.44635 11.5536 9.81545 11.6137 10.2833 11.7425C10.6524 11.8412 11.0558 11.9742 11.6009 12.1674C11.7639 12.2275 12.3262 12.4292 12.3948 12.4549C12.7253 12.5751 12.9742 12.6609 13.2189 12.7382C14 12.9871 14.6051 13.1245 15.2618 13.1245C15.927 13.1245 16.4979 12.9828 17.309 12.7039C17.6137 12.6009 18.721 12.1888 18.9185 12.1202C20.0172 11.7296 20.8283 11.5193 21.5279 11.4678C21.7339 11.4506 21.9185 11.4506 22.0944 11.4635C23.0687 11.5408 23.9013 11.7339 24.6094 12.0558C22.9957 13.9185 22.1631 16.1974 22.1674 18.8541C22.1545 19.485 22.206 20.2146 22.3863 21.0773C22.6609 22.3863 23.1845 23.6824 24.0129 24.897C24.6438 25.8197 25.4249 26.6524 26.3605 27.3777C25.867 28.3949 25.2618 29.4464 24.6266 30.3305ZM20.5708 5.78112C22.7468 3.19742 22.5494 0.845494 22.485 0C20.5622 0.111588 18.3391 1.30901 17.073 2.78112C15.6781 4.36052 14.8584 6.3133 15.0343 8.51502C17.1116 8.67382 19.0086 7.60515 20.5708 5.78112Z" fill="white"/>
</svg>
