<svg width="14" height="9" viewBox="0 0 14 9" fill="none" xmlns="http://www.w3.org/2000/svg">
<path d="M0.305919 1.18898C0.501858 0.993096 0.767573 0.883057 1.04463 0.883057C1.32169 0.883057 1.5874 0.993096 1.78334 1.18898L6.95537 6.361L12.1274 1.18898C12.3245 0.998647 12.5884 0.893331 12.8623 0.895712C13.1363 0.898093 13.3984 1.00798 13.5921 1.2017C13.7858 1.39543 13.8957 1.65749 13.8981 1.93145C13.9005 2.2054 13.7951 2.46934 13.6048 2.6664L7.69408 8.57714C7.49814 8.77302 7.23243 8.88306 6.95537 8.88306C6.67831 8.88306 6.4126 8.77302 6.21666 8.57714L0.305919 2.6664C0.110039 2.47046 0 2.20475 0 1.92769C0 1.65063 0.110039 1.38491 0.305919 1.18898Z" fill="#D7D6D6"/>
</svg>
