<svg width="46" height="38" viewBox="0 0 46 38" fill="none" xmlns="http://www.w3.org/2000/svg">
<path d="M1 1H37V15H1V1ZM9 23H45V37H9V23Z" stroke="white" stroke-width="2" stroke-linecap="round" stroke-linejoin="round"/>
<path fill-rule="evenodd" clip-rule="evenodd" d="M5.2 5.6C5.2 5.93137 4.93137 6.2 4.6 6.2C4.26863 6.2 4 5.93137 4 5.6C4 5.26863 4.26863 5 4.6 5C4.93137 5 5.2 5.26863 5.2 5.6ZM5.2 10.4C5.2 10.7314 4.93137 11 4.6 11C4.26863 11 4 10.7314 4 10.4C4 10.0686 4.26863 9.8 4.6 9.8C4.93137 9.8 5.2 10.0686 5.2 10.4ZM7 6.2C7.33137 6.2 7.6 5.93137 7.6 5.6C7.6 5.26863 7.33137 5 7 5C6.66863 5 6.4 5.26863 6.4 5.6C6.4 5.93137 6.66863 6.2 7 6.2ZM7.6 10.4C7.6 10.7314 7.33137 11 7 11C6.66863 11 6.4 10.7314 6.4 10.4C6.4 10.0686 6.66863 9.8 7 9.8C7.33137 9.8 7.6 10.0686 7.6 10.4ZM7 8.6C7.33137 8.6 7.6 8.33137 7.6 8C7.6 7.66863 7.33137 7.4 7 7.4C6.66863 7.4 6.4 7.66863 6.4 8C6.4 8.33137 6.66863 8.6 7 8.6ZM5.2 8C5.2 8.33137 4.93137 8.6 4.6 8.6C4.26863 8.6 4 8.33137 4 8C4 7.66863 4.26863 7.4 4.6 7.4C4.93137 7.4 5.2 7.66863 5.2 8Z" fill="white"/>
<path fill-rule="evenodd" clip-rule="evenodd" d="M14.2 27.6C14.2 27.9314 13.9314 28.2 13.6 28.2C13.2686 28.2 13 27.9314 13 27.6C13 27.2686 13.2686 27 13.6 27C13.9314 27 14.2 27.2686 14.2 27.6ZM14.2 32.4C14.2 32.7314 13.9314 33 13.6 33C13.2686 33 13 32.7314 13 32.4C13 32.0686 13.2686 31.8 13.6 31.8C13.9314 31.8 14.2 32.0686 14.2 32.4ZM16 28.2C16.3314 28.2 16.6 27.9314 16.6 27.6C16.6 27.2686 16.3314 27 16 27C15.6686 27 15.4 27.2686 15.4 27.6C15.4 27.9314 15.6686 28.2 16 28.2ZM16.6 32.4C16.6 32.7314 16.3314 33 16 33C15.6686 33 15.4 32.7314 15.4 32.4C15.4 32.0686 15.6686 31.8 16 31.8C16.3314 31.8 16.6 32.0686 16.6 32.4ZM16 30.6C16.3314 30.6 16.6 30.3314 16.6 30C16.6 29.6686 16.3314 29.4 16 29.4C15.6686 29.4 15.4 29.6686 15.4 30C15.4 30.3314 15.6686 30.6 16 30.6ZM14.2 30C14.2 30.3314 13.9314 30.6 13.6 30.6C13.2686 30.6 13 30.3314 13 30C13 29.6686 13.2686 29.4 13.6 29.4C13.9314 29.4 14.2 29.6686 14.2 30Z" fill="white"/>
</svg>
