<svg width="18" height="21" viewBox="0 0 18 21" fill="none" xmlns="http://www.w3.org/2000/svg">
<path d="M6 9.88306H4V11.8831H6V9.88306ZM10 9.88306H8V11.8831H10V9.88306ZM14 9.88306H12V11.8831H14V9.88306ZM16 2.88306H15V0.883057H13V2.88306H5V0.883057H3V2.88306H2C0.89 2.88306 0.00999999 3.78306 0.00999999 4.88306L0 18.8831C0 19.4135 0.210714 19.9222 0.585786 20.2973C0.960859 20.6723 1.46957 20.8831 2 20.8831H16C17.1 20.8831 18 19.9831 18 18.8831V4.88306C18 3.78306 17.1 2.88306 16 2.88306ZM16 18.8831H2V7.88306H16V18.8831Z" fill="#D7D6D6"/>
</svg>
