<svg width="42" height="42" viewBox="0 0 42 42" fill="none" xmlns="http://www.w3.org/2000/svg">
<path d="M37 1H17C14.794 1 13 2.794 13 5V13H5C2.794 13 1 14.794 1 17V37C1 39.206 2.794 41 5 41H25C27.206 41 29 39.206 29 37V29H37C39.206 29 41 27.206 41 25V5C41 2.794 39.206 1 37 1ZM5 37V17H25L25.004 37H5ZM37 25H29V17C29 14.794 27.206 13 25 13H17V5H37V25Z" fill="white" stroke="#2D1D58" stroke-width="1.6"/>
<path d="M9 21H21V25H9V21ZM9 29H21V33H9V29Z" fill="white" stroke="#2D1D58" stroke-width="1.6"/>
</svg>
