<svg width="41" height="32" viewBox="0 0 41 32" fill="none" xmlns="http://www.w3.org/2000/svg">
<path d="M39.973 27.3372C39.8513 27.7229 39.7802 28.1289 39.6178 28.4942C38.8465 30.1283 37.5372 30.9808 35.7307 30.9909C32.4728 31.0112 29.2149 30.9909 25.957 30.9909C21.0346 30.9909 16.1224 30.9909 11.2 30.9909C9.81968 30.9909 8.69312 30.4733 7.79998 29.428C5.96297 27.2865 4.14626 25.145 2.2991 23.0238C1.64955 22.2728 1.19284 21.4507 1 20.4865C1 20.1313 1 19.776 1 19.4208C1.22328 18.2029 1.91343 17.2489 2.81671 16.3456C2.41074 15.9498 2.02507 15.5641 1.6394 15.1886C1.52776 15.0871 1.42627 14.9755 1.31463 14.8638C1.03045 14.5593 1 14.2346 1.23343 13.991C1.47701 13.7474 1.81194 13.7576 2.10627 14.0519C2.49194 14.4274 2.85731 14.8029 3.24298 15.1784C3.33432 15.2698 3.42567 15.351 3.53731 15.4626C4.32895 14.539 5.11044 13.6256 5.89193 12.7122C6.54148 11.951 7.19103 11.1898 7.84058 10.4286C8.66267 9.46443 9.70804 8.95697 10.9665 8.93667C12.6818 8.90622 14.3868 8.92652 16.1021 8.92652C16.6501 8.92652 16.9546 9.35279 16.7313 9.76891C16.5892 10.0328 16.3558 10.0734 16.0818 10.0734C14.4883 10.0734 12.8847 10.0835 11.2913 10.0632C10.1952 10.0531 9.31222 10.4489 8.60177 11.3014C7.21133 12.9659 5.79044 14.5999 4.34925 16.2847C4.80596 16.7414 5.25253 17.1981 5.71939 17.6447C5.78029 17.7056 5.95282 17.6853 6.05432 17.6549C7.42446 17.259 8.80476 18.0101 9.13968 19.3599C9.48476 20.7402 8.63222 22.0901 7.22148 22.354C6.237 22.5366 5.40477 22.1916 4.82626 21.3796C4.22746 20.5575 4.20716 19.6644 4.68417 18.7611C4.73492 18.6596 4.80596 18.5683 4.84656 18.4972C4.42029 18.071 4.00417 17.6447 3.58805 17.2286C2.42089 18.3044 1.82209 19.4208 2.30925 20.8925C2.44119 21.2883 2.67462 21.674 2.94865 21.9987C4.84656 24.2417 6.76476 26.4745 8.67282 28.7074C9.32237 29.4686 10.1343 29.8441 11.1391 29.8441C19.3295 29.8441 27.5199 29.8441 35.7205 29.8441C37.5169 29.8441 38.816 28.5348 38.8262 26.7486C38.8363 22.2322 38.8262 17.7158 38.8262 13.1993C38.8262 11.3826 37.5271 10.0734 35.7205 10.0632C33.2746 10.0531 30.8286 10.0632 28.3725 10.0632C28.2202 10.0632 28.0274 10.0937 27.9259 10.0226C27.7635 9.8907 27.5808 9.67756 27.5808 9.50503C27.5808 9.33249 27.7635 9.11935 27.9259 8.98741C28.0375 8.90622 28.2405 8.92652 28.4029 8.92652C30.788 8.92652 33.1731 8.92652 35.5581 8.92652C37.8722 8.92652 39.4453 10.2053 39.9122 12.4686C39.9223 12.499 39.9426 12.5295 39.9629 12.5701C39.973 17.4925 39.973 22.4148 39.973 27.3372ZM8.07401 19.9587C8.07401 19.2584 7.49551 18.6698 6.79521 18.6698C6.09491 18.6698 5.50626 19.2483 5.49611 19.9486C5.48596 20.659 6.08476 21.2578 6.80536 21.2477C7.51581 21.2477 8.08416 20.6692 8.07401 19.9587Z" fill="white" stroke="white"/>
<path d="M27.9261 1C28.9917 1.0609 29.8849 1.57851 30.372 2.64418C30.8592 3.71999 30.7273 4.75522 29.9559 5.6585C29.5093 6.17611 29.0019 6.64297 28.5249 7.13014C24.6885 10.9665 20.8521 14.803 17.0156 18.6394C16.4168 19.2382 15.7368 19.6949 14.935 19.9994C13.8795 20.3952 12.8342 20.8011 11.7786 21.2173C11.3524 21.3898 10.9566 21.3695 10.6216 21.0346C10.2766 20.6997 10.2766 20.2937 10.4389 19.8776C10.8754 18.7612 11.261 17.6143 11.7583 16.5182C12.0425 15.8991 12.418 15.2698 12.8951 14.7928C17.1577 10.4895 21.4509 6.20656 25.7338 1.92358C26.3225 1.33492 27.0126 1.01015 27.9261 1ZM16.0718 17.8274C19.8168 14.0824 23.5619 10.3474 27.2765 6.64297C27.0532 6.40954 26.7995 6.14566 26.5864 5.92238C22.8514 9.65729 19.1165 13.3922 15.3918 17.117C15.615 17.3504 15.8688 17.6143 16.0718 17.8274ZM25.0437 4.30865C21.2783 8.07401 17.5434 11.8089 13.7983 15.554C14.0216 15.7773 14.2551 16.0209 14.4479 16.2137C18.2031 12.4483 21.9482 8.71341 25.6932 4.9582C25.4902 4.75522 25.2568 4.52178 25.0437 4.30865ZM28.2001 5.79044C28.5046 5.49611 28.8293 5.22208 29.1034 4.90745C29.6413 4.28835 29.6413 3.36477 29.1135 2.74567C28.5756 2.10627 27.6317 1.92358 26.9517 2.40059C26.5356 2.69492 26.1905 3.09074 25.8353 3.41552C26.6473 4.2376 27.4186 5.00895 28.2001 5.79044ZM12.9661 16.4979C12.5297 17.6346 12.073 18.8018 11.5858 20.0603C12.8443 19.5731 14.0115 19.1164 15.1482 18.68C14.4174 17.9492 13.7171 17.2489 12.9661 16.4979Z" fill="white" stroke="white"/>
<path d="M24.1704 23.8561C21.4809 23.8561 18.7913 23.8561 16.1018 23.8561C15.98 23.8561 15.8481 23.8561 15.7263 23.846C15.4319 23.8155 15.2594 23.643 15.229 23.3588C15.1985 23.0543 15.3406 22.8412 15.6349 22.76C15.7669 22.7194 15.909 22.7194 16.051 22.7194C21.4606 22.7194 26.8803 22.7194 32.2898 22.7194C32.4421 22.7194 32.5943 22.7295 32.7364 22.7701C33.0104 22.8615 33.1829 23.0949 33.0916 23.3588C33.0307 23.5516 32.8176 23.714 32.6349 23.8358C32.5334 23.9069 32.3609 23.8561 32.2289 23.8561C29.5495 23.8561 26.86 23.8561 24.1704 23.8561Z" fill="white" stroke="white"/>
<path d="M27.8245 16.0716C29.3468 16.0716 30.8692 16.0716 32.3916 16.0716C32.8788 16.0716 33.1224 16.2746 33.1224 16.6501C33.1122 17.0155 32.8585 17.2185 32.3713 17.2185C29.357 17.2185 26.3325 17.2185 23.3182 17.2185C22.8513 17.2185 22.5976 17.0358 22.5672 16.6907C22.5367 16.3355 22.7904 16.0817 23.2167 16.0817C24.6579 16.0817 26.1092 16.0817 27.5504 16.0817C27.6519 16.0716 27.7433 16.0716 27.8245 16.0716Z" fill="white" stroke="white"/>
<path d="M27.865 19.4005C29.3367 19.4005 30.8083 19.4005 32.28 19.4005C32.4017 19.4005 32.5337 19.4005 32.6555 19.4208C32.9397 19.4716 33.102 19.6542 33.1122 19.9384C33.1223 20.2226 32.9904 20.4256 32.7062 20.4966C32.5641 20.5372 32.4017 20.5372 32.2495 20.5372C29.3062 20.5372 26.363 20.5372 23.4298 20.5372C23.3385 20.5372 23.2471 20.5372 23.1659 20.5372C22.8006 20.5068 22.5671 20.2835 22.5671 19.979C22.557 19.6542 22.8006 19.4107 23.1862 19.4107C24.7492 19.3904 26.3122 19.4005 27.865 19.4005Z" fill="white" stroke="white"/>
</svg>
