<svg width="27" height="36" viewBox="0 0 27 36" fill="none" xmlns="http://www.w3.org/2000/svg">
<path fill-rule="evenodd" clip-rule="evenodd" d="M26.514 32.9506V19.5074V19.5056C26.514 14.9691 26.514 10.4607 26.486 5.92424C26.486 4.98122 26.486 4.50515 26.248 4.26482C26.0053 4.01979 25.5152 4.01979 24.5255 4.01979C22.6211 3.99179 20.6886 3.96378 18.7842 4.01979C18 4.0478 17.5239 3.79574 17.1878 3.03956C16.5437 1.58322 15.3394 0.883057 13.743 0.883057C12.1466 0.883057 10.9143 1.61123 10.3542 3.12358C10.0181 3.93578 9.514 4.07581 8.72982 4.07581C7.92258 4.0646 7.11534 4.07134 6.3099 4.07807H6.30986H6.30983C5.10331 4.08814 3.90082 4.09818 2.7084 4.0478C1.4201 3.99179 1 4.38388 1 5.70019C1.05601 14.8864 1.05601 24.0725 1 33.2587C1 34.575 1.50412 34.8831 2.73641 34.8831C8.2191 34.841 13.7176 34.8463 19.2081 34.8515H19.2082H19.2095H19.2122H19.2148C21.0422 34.8533 22.8688 34.855 24.6936 34.855C25.5901 34.855 26.0451 34.855 26.276 34.6276C26.514 34.3932 26.514 33.9171 26.514 32.9506ZM2.37582 22.5462C2.37407 21.4959 2.37232 20.4457 2.37232 19.3954C2.37232 18.5552 2.37344 17.715 2.37457 16.8747V16.8742C2.37904 13.5136 2.38352 10.153 2.31631 6.79245C2.31631 5.67218 2.6804 5.25208 3.77265 5.39212H3.91269C7.13344 5.33611 7.18946 5.33611 7.21746 8.52885C7.24547 9.5651 7.60955 9.87317 8.6458 9.87317C12.0066 9.84517 15.3674 9.84517 18.7282 9.90118C19.8764 9.90118 20.2685 9.53709 20.2685 8.36082C20.2405 5.36411 20.2965 5.36411 23.2652 5.39212C25.1417 5.39212 25.1417 5.39212 25.1417 7.21255C25.1417 9.2641 25.1399 11.3156 25.1382 13.3672C25.1329 19.5216 25.1277 25.676 25.1697 31.8303C25.1977 33.0906 24.8896 33.5107 23.5453 33.5107C16.9918 33.4547 10.4102 33.4547 3.82867 33.5107C2.65239 33.5387 2.31631 33.1466 2.34431 31.9984C2.38632 28.8479 2.38107 25.6974 2.37582 22.5469V22.5462ZM14.4098 8.54103C14.1882 8.54657 13.966 8.55212 13.743 8.55686C13.4074 8.55686 13.0717 8.55512 12.7356 8.55337H12.7355H12.7354C11.7255 8.54811 10.7117 8.54284 9.68204 8.58487C8.6458 8.61287 8.53377 7.96872 8.61779 7.21255C8.63731 7.04343 8.6251 6.85165 8.61274 6.65755C8.57188 6.01596 8.52943 5.34911 9.62603 5.39212C10.6903 5.44813 11.1944 5.08405 11.4465 3.99179C11.7265 2.87152 12.6227 2.19937 13.855 2.25538C15.0593 2.31139 15.8995 2.98355 16.1236 4.15983C16.3196 5.16806 16.8237 5.47614 17.7479 5.39212C18.9023 5.27668 18.8957 5.96056 18.8892 6.64365C18.8878 6.78922 18.8864 6.93476 18.8962 7.07251C18.9522 7.94072 18.8402 8.64088 17.6639 8.55686C16.5706 8.48708 15.4966 8.5139 14.4098 8.54103ZM14.9971 14.1268L14.9954 14.1268C14.5409 14.1285 14.0859 14.1303 13.6309 14.1303C12.8752 14.1423 12.1195 14.1389 11.3616 14.1354C10.35 14.1309 9.33441 14.1263 8.30968 14.1583C8.05582 14.1778 7.81558 14.3744 7.57946 14.5675L7.5794 14.5676C7.47689 14.6514 7.37516 14.7346 7.27344 14.8025C7.39382 14.8765 7.51114 14.9721 7.62743 15.0667L7.62746 15.0668L7.62749 15.0668C7.86288 15.2584 8.09401 15.4466 8.33769 15.4466C11.9225 15.4746 15.5074 15.4746 19.0922 15.4466C19.3349 15.4466 19.5777 15.2723 19.8204 15.0981C19.9418 15.0109 20.0631 14.9238 20.1845 14.8585C20.0558 14.7757 19.9331 14.6749 19.8125 14.5757C19.5657 14.3729 19.3276 14.1771 19.0642 14.1583C17.7203 14.1163 16.3607 14.1215 14.9971 14.1268ZM15.0714 18.7198H15.0715H15.0717C16.3652 18.7146 17.6509 18.7093 18.9523 18.7513C19.2427 18.7707 19.5197 18.9506 19.8018 19.1339C19.9278 19.2158 20.0548 19.2983 20.1845 19.3675C20.0611 19.4468 19.9405 19.5428 19.8209 19.6379C19.5605 19.8451 19.305 20.0484 19.0363 20.0676C15.4794 20.1236 11.9506 20.1236 8.39377 20.0676C8.13891 20.0676 7.88404 19.8755 7.62918 19.6834L7.6291 19.6833C7.51991 19.601 7.41071 19.5187 7.30151 19.4515C7.42492 19.3721 7.54556 19.2762 7.66517 19.181C7.92557 18.9738 8.1811 18.7705 8.44978 18.7513C9.77398 18.7093 11.114 18.7146 12.446 18.7198C12.8889 18.7216 13.3308 18.7233 13.771 18.7233C14.2059 18.7233 14.6391 18.7215 15.0714 18.7198ZM11.9972 23.3632C11.7035 23.3678 11.4081 23.3724 11.1103 23.3724C10.8405 23.3724 10.5685 23.3679 10.2941 23.3634C9.60035 23.3519 8.89219 23.3402 8.16965 23.4004C7.96395 23.4191 7.77074 23.6001 7.57335 23.7851C7.4751 23.8771 7.37582 23.9701 7.27344 24.0446C7.3572 24.1097 7.44096 24.1996 7.52576 24.2906C7.69612 24.4734 7.87063 24.6607 8.05762 24.6607C10.1021 24.7167 12.1466 24.7167 14.1911 24.6607C14.3738 24.6607 14.5446 24.4938 14.7191 24.3233C14.812 24.2325 14.9059 24.1407 15.0033 24.0726C14.9099 23.9979 14.8197 23.9014 14.7294 23.805C14.5489 23.612 14.3684 23.4191 14.1631 23.4004C13.4445 23.3405 12.7259 23.3518 11.9972 23.3632Z" fill="white" stroke="white" stroke-width="0.4"/>
</svg>
