<svg width="20" height="18" viewBox="0 0 20 18" fill="none" xmlns="http://www.w3.org/2000/svg">
<path d="M9.90808 11.7079C10.5894 11.7079 11.2428 11.4373 11.7246 10.9555C12.2063 10.4737 12.477 9.82031 12.477 9.139C12.477 9.06376 12.4736 8.98922 12.4671 8.91559L9.68468 11.698C9.75831 11.7045 9.83262 11.7079 9.90808 11.7079ZM18.4112 1.1928L17.4313 0.213858C17.3969 0.179472 17.3503 0.160156 17.3016 0.160156C17.253 0.160156 17.2063 0.179472 17.1719 0.213858L14.6645 2.72199C13.2812 2.01508 11.7264 1.66162 9.99983 1.66162C5.59139 1.66162 2.30226 3.95759 0.132449 8.54952C0.0452327 8.7342 0 8.9359 0 9.14014C0 9.34438 0.0452327 9.54608 0.132449 9.73076C0.999457 11.557 2.04346 13.0207 3.26446 14.122L0.837983 16.5476C0.803597 16.582 0.784281 16.6286 0.784281 16.6773C0.784281 16.7259 0.803597 16.7726 0.837983 16.807L1.81715 17.7861C1.85156 17.8205 1.89821 17.8398 1.94686 17.8398C1.9955 17.8398 2.04216 17.8205 2.07657 17.7861L18.4112 1.45244C18.4282 1.4354 18.4418 1.41516 18.451 1.39289C18.4603 1.37061 18.465 1.34673 18.465 1.32262C18.465 1.29851 18.4603 1.27463 18.451 1.25235C18.4418 1.23008 18.4282 1.20984 18.4112 1.1928ZM5.87122 9.139C5.87116 8.44173 6.05169 7.75634 6.39525 7.14959C6.7388 6.54284 7.23366 6.03542 7.83161 5.67676C8.42955 5.31811 9.1102 5.12044 9.80725 5.10302C10.5043 5.08561 11.194 5.24903 11.8091 5.57738L10.6939 6.69256C10.2442 6.54856 9.76343 6.53121 9.30448 6.64244C8.84553 6.75366 8.42608 6.98915 8.09216 7.32307C7.75824 7.657 7.52275 8.07644 7.41152 8.53539C7.3003 8.99435 7.31764 9.47507 7.46165 9.92481L6.34647 11.04C6.03352 10.4553 5.87024 9.80218 5.87122 9.139V9.139Z" fill="#D7D6D6"/>
<path d="M19.8676 8.54726C19.0602 6.84688 18.0992 5.46036 16.9846 4.38768L13.6785 7.69401C13.9572 8.42252 14.019 9.21614 13.8564 9.97899C13.6938 10.7418 13.3138 11.4413 12.7622 11.9928C12.2107 12.5444 11.5112 12.9244 10.7484 13.087C9.98554 13.2496 9.19192 13.1878 8.46342 12.9091L5.65918 15.7134C6.96015 16.3154 8.40715 16.6164 10.0002 16.6164C14.4086 16.6164 17.6977 14.3204 19.8676 9.72851C19.9548 9.54383 20 9.34212 20 9.13788C20 8.93364 19.9548 8.73194 19.8676 8.54726Z" fill="#D7D6D6"/>
</svg>
