<svg width="18" height="14" viewBox="0 0 18 14" fill="none" xmlns="http://www.w3.org/2000/svg">
<path d="M6.60536 7C6.60536 7.6132 6.84895 8.20128 7.28255 8.63488C7.71614 9.06847 8.30422 9.31206 8.91742 9.31206C9.53062 9.31206 10.1187 9.06847 10.5523 8.63488C10.9859 8.20128 11.2295 7.6132 11.2295 7C11.2295 6.38681 10.9859 5.79873 10.5523 5.36513C10.1187 4.93154 9.53062 4.68795 8.91742 4.68795C8.30422 4.68795 7.71614 4.93154 7.28255 5.36513C6.84895 5.79873 6.60536 6.38681 6.60536 7ZM17.8808 6.4674C15.9238 2.34492 12.9656 0.270264 8.99999 0.270264C5.03233 0.270264 2.0762 2.34492 0.119206 6.46947C0.0407101 6.63568 0 6.81722 0 7.00104C0 7.18485 0.0407101 7.36639 0.119206 7.5326C2.0762 11.6551 5.0344 13.7297 8.99999 13.7297C12.9677 13.7297 15.9238 11.6551 17.8808 7.53054C18.0397 7.19612 18.0397 6.80802 17.8808 6.4674ZM8.91742 10.6332C6.91088 10.6332 5.28418 9.00654 5.28418 7C5.28418 4.99347 6.91088 3.36677 8.91742 3.36677C10.924 3.36677 12.5507 4.99347 12.5507 7C12.5507 9.00654 10.924 10.6332 8.91742 10.6332Z" fill="#D7D6D6"/>
</svg>
