<svg width="166" height="305" viewBox="0 0 166 305" fill="none" xmlns="http://www.w3.org/2000/svg">
<path fill-rule="evenodd" clip-rule="evenodd" d="M103.955 30.656C104.09 29.514 104.234 28.3031 104.4 27C104.133 25.6625 103.899 24.2022 103.653 22.6711C103.165 19.6231 102.632 16.2951 101.7 13.1C98.8 4.59998 92.5 0.599976 83.3 0.599976C74.1 0.599976 68.1 4.59998 65 13.1C61.9 21.6 61.9 30.4 64 39.1C66.6 49.7 73.1 54.7 83.6 54.6C93.8 54.5 100.4 49.1 102.8 38.6C103.306 36.1427 103.603 33.6331 103.955 30.656ZM87 190V242C87.1 259.8 87 277.7 86.9 295.6C86.9 302.2 90.6 305.4 97.1 304.8C102.5 304.3 105.7 301.2 106.9 295.2C107.727 291.03 108.467 286.849 109.206 282.672C110.7 274.227 112.192 265.796 114.4 257.5C120.4 235 127 212.6 134 190.4C145.1 155 140.4 122 120.7 90.9C120.586 90.701 120.44 90.4939 120.292 90.2833C119.918 89.7532 119.528 89.201 119.6 88.7C119.617 88.5667 119.633 88.4286 119.65 88.2871C119.838 86.73 120.075 84.7667 120.9 84.4C122.2 83.8 124.3 84.3 125.7 85C126.49 85.3591 126.971 86.2855 127.438 87.1867C127.621 87.5403 127.803 87.89 128 88.2C143.7 114.5 151.6 142.4 145.7 173.2C145 176.7 146.6 178 149.3 179.1C157.4 182.2 165 176.8 165.5 166.9C166.5 147.9 166 128.9 161.5 110.3C154.7 81.8 138.8 61.4 109.9 52.6C107.1 51.7 105.3 51.8 103 54.2C92.7 65.3 73.5 65.3 63.2 54.2C60.9 51.7 59.1 51.6 56.3 52.5C33.2 59.5 17.4 74.3 8.79999 96.8C2.29999 113.7 0.599989 131.4 0.199989 149.3C-1.13398e-05 155.7 0.0999856 162.3 0.899986 168.7C1.89999 177.6 9.6 182.1 17.1 178.9C19.8 177.8 20.9 176.3 20.3 173.2C16.7 155 17.7 136.9 23.9 119.5C26.8608 111.149 30.8591 103.086 34.8447 95.0488C36.1089 92.4994 37.3719 89.9526 38.6 87.4C39.8 84.8 41.7 82 45.1 84.2C48.2985 86.2105 46.7368 88.6385 45.2992 90.8735C45.1636 91.0842 45.0292 91.2932 44.9 91.5C44.7 91.85 44.475 92.2 44.25 92.55C44.025 92.9 43.8 93.25 43.6 93.6C30.6 115.9 23.1 139.7 27 165.7C28.8 177.7 31.8 189.6 35.5 201.1C45.2 231.5 54.3 262.1 58.9 293.9C60 301.4 64.4 305.2 71.3 304.6C77.2 304.2 79.3 301 79.3 292.6V190.6C79.3 190.205 79.2817 189.797 79.2631 189.385C79.2067 188.129 79.1483 186.829 79.6 185.7C80.2 184.4 81.8 182.6 82.8 182.7C84.2 182.8 85.9 184.3 86.7 185.6C87.2144 186.408 87.1348 187.595 87.0564 188.762C87.0281 189.184 87 189.602 87 190Z" fill="#D7D6D6"/>
</svg>
