<svg width="215" height="305" viewBox="0 0 215 305" fill="none" xmlns="http://www.w3.org/2000/svg">
<path d="M111 241.5C111 224.3 111 207.2 111 190C111 188.8 111.4 187.4 110.9 186.6C109.9 185 108.4 183.7 107.1 182.3C105.9 183.6 104.3 184.8 103.6 186.3C103 187.7 103.4 189.6 103.4 191.2C103.4 224.9 103.4 258.5 103.4 292.2C103.4 300.9 101.1 304.2 94.6 304.7C87 305.3 81.9 301.4 80.7 293.6C77.6 273.3 68.9 255.6 55.5 240.1C51.4 235.3 47.5 230.3 43.9 225.1C34.2 211 31.8 195.1 32.3 178.4C32.4 175.8 32.1 173.1 31.4 170.6C25.5 149.4 28.3 130.4 44.5 114.4C45.4 113.5 46.3 111.8 46.2 110.6C45 101.1 49.4 94.2 56 88.3C56.6 87.7 57.7 87.3 57.8 86.6C58.2 84.7 58.2 82.8 58.3 80.9C56.5 80.9 54.1 80.2 53 81.1C44.7 87.6 39 95.6 38 106.6C37.8 108.9 36.9 111.4 35.5 113.2C22.9 129.4 18 147.4 22.9 167.6C23.8 171.1 22.6 172.8 19.8 174.3C10.7 179 0.999974 174.5 0.299974 164.1C-0.300026 155.3 0.899961 146.2 2.09996 137.3C4.29996 121.9 8.70001 107.1 15.9 93.2C29 67.7 50.6 54 78 48.5C79.1 48.3 81.2 49.3 81.8 50.3C90.2 66.5 124.2 66.5 132.7 50.4C133.3 49.3 135.9 48.5 137.4 48.7C170.8 55.3 193.1 74.8 204.7 106.8C210.3 122.2 213.4 138.2 214.7 154.6C215.1 158.8 214.7 163.4 213.5 167.4C210.8 176.2 199.6 179 192.7 172.9C191.8 172.1 191.2 169.9 191.5 168.7C196.5 147.4 191.9 128.5 177.7 111.8C176.7 110.7 176.3 108.8 176.2 107.3C175.8 96.1 170 87.8 161.5 81.3C160.3 80.4 157.8 81.2 155.9 81.3C156.2 83.2 155.9 85.5 156.8 86.9C158.2 89.1 161 90.4 162.3 92.6C164.7 96.7 168 101.2 167.9 105.5C167.8 111.6 170.6 115.1 174 119.2C186.6 134.1 188.3 151.2 183.4 169.5C182.6 172.6 181.9 176 182.1 179.3C183.3 200.8 177.2 219.7 162.7 235.8C147.3 252.9 136.6 272.2 133.5 295.4C132.5 303 122.7 307.2 115.8 303.7C112 301.8 111.1 298.5 111.1 294.5C111 276.8 111 259.1 111 241.5Z" fill="#D7D6D6"/>
<path d="M84.5 28.8C84.9 25.4 85 21.8 85.7 18.5C88.7 4.39999 99.6 -2.30002 113.7 1.29998C122.3 3.49998 127.2 9.49998 128.3 17.8C129.3 24.9 129.2 32.4 128.4 39.6C127.5 47.4 122.4 52.6 114.4 53.9C110 54.6 105.4 54.8 101 54.2C92.5 53 87.2 47.9 85.7 39.4C85.2 35.9 85 32.4 84.5 28.8Z" fill="#D7D6D6"/>
</svg>
