<svg width="192" height="305" viewBox="0 0 192 305" fill="none" xmlns="http://www.w3.org/2000/svg">
<path d="M91.9 242.2C91.9 259.4 91.9 276.5 91.9 293.7C91.9 301 89.6 304.2 83.7999 304.6C77.2999 305.1 72.5 301.5 71.2 295C69.4 286 67.8 277 65.5 268.1C61.1 251.2 52.9 235.9 43.6 221.2C35.4 208.3 29.8 194.7 30.1 179C30.2 175.1 29.5 171.1 28.6 167.3C24.3 150.7 28 135.3 35.1 120.3C37.2 115.9 38.3 111 40.5 106.6C43.4 100.7 46.7999 95 50.2999 89.4C51.7 87.1 54.3 85.2 51.5 82.6C48.5 79.7 46 82.1 44.5 84.5C40.6 90.6 36.8 96.9 33.5 103.3C31 108.3 29.5 113.8 27.2 118.9C19.6 135.6 16.1 152.7 21.5 170.8C21.9 172.2 20.8999 174.7 19.7999 175.6C13.6999 180.4 5.39995 178.3 2.29995 171.2C1.09995 168.5 0.199948 165.4 0.299948 162.5C0.799948 138.8 3.99997 115.7 14.7 94.2C25.7 72.1 43.1 57.6 66.9 51C70 50.1 72 50.1 74.5 53.1C84.5 65.4 107.1 65.3 117.1 53C119.3 50.2 121.2 50 124.2 50.8C152 58.5 170.3 76.5 180.8 102.9C188.3 121.8 190.9 141.5 191.2 161.6C191.2 165.3 190.2 169.3 188.4 172.5C185 179 176 180 170.8 174.9C170 174.1 169.5 172.2 169.8 171.1C175.9 150.5 171.3 131.6 161.5 113.4C160.4 111.4 159.6 109.1 159.1 106.9C157.1 97.7 152.7 89.7 145.9 83.3C144.7 82.2 142 82.7 140 82.5C140.1 84.4 139.5 87 140.5 88.1C146.6 95 151.2 102.5 152 111.9C152.1 113.3 153.3 114.6 154 115.9C163.6 133.5 168.6 151.6 161.4 171.5C160.9 173 161 174.8 161.1 176.4C161.9 189.2 159.1 201.2 152.8 212.4C149.6 218.1 146.3 223.6 142.9 229.2C131.1 248.7 123.9 269.9 120.6 292.4C119.5 300 116.2 303.8 110.1 304.4C103.4 305 99.6999 301.8 99.5999 295C99.4999 276.7 99.5999 258.3 99.5999 240C99.5999 222.8 99.5999 205.7 99.5999 188.5C99.5999 185.6 99.7 182.2 95.7 182.3C91.7 182.3 91.9 185.7 91.9 188.6C91.9 206.6 91.9 224.4 91.9 242.2Z" fill="#D7D6D6"/>
<path d="M74.3 29.5C75 24.4 75.1001 20.7 75.9001 17.2C78.4001 5.9 85.2 0.499996 96.3 0.599996C106.8 0.699996 113.6 6.5 115.8 17.6C117.5 26.2 117.5 34.8 114.4 43.2C111.6 50.6 105.6 54.3 96.7001 54.5C88.3001 54.7 80.8001 52.6 77.5001 44.1C75.6001 39.1 75.1 33.5 74.3 29.5Z" fill="#D7D6D6"/>
</svg>
