<svg width="155" height="305" viewBox="0 0 155 305" fill="none" xmlns="http://www.w3.org/2000/svg">
<path d="M73.8 242.7C73.8 260 73.8 277.4 73.8 294.7C73.8 301.1 71.9 303.9 67.1 304.7C61.2 305.6 56.3 302.6 55 296.8C47.7 263.6 40.5 230.5 33.3 197.3C32.8 194.9 32.6 192.4 32.4 189.9C31.8 179.5 31.3 169.4 27.5 159.3C23.7 149 26.5 137.8 29.6 127.4C32.7 116.7 36.6 106.2 40.2 95.7C40.7 94.3 41.6 92.7 41.3 91.4C41 90 39.9 88.1 38.7 87.8C37.6 87.4 35 88.4 34.6 89.3C26.3 111.9 15.7 134.1 19.5 159.2C20.2 164 23 168.5 24.4 173.2C24.9 174.8 25 177.1 24.2 178.4C21.4 182.7 17.2 184.5 12.1 183.6C7.30003 182.8 4.50003 179.5 3.50003 174.9C-2.89997 144.9 -1.59997 115.6 12.2 87.7C21 69.8 35.5 59 54.6 54C56.1 53.6 58.5 54.3 59.7 55.4C70.5 64.8 84.6 65 94.9 55.3C97 53.3 98.7 53.4 101.1 54.1C123.7 60.4 138.3 75 146.7 96.7C156.6 122.3 156.9 148.4 151.4 174.9C149.6 183.8 140.1 186.9 133.1 181.3C129.7 178.6 128.2 176 131 171.3C138.3 159.1 137.8 145.6 134.4 132.5C130.7 118.4 125.6 104.6 120.9 90.8C120.4 89.4 117.7 88.8 116.1 87.8C115.4 89.6 113.6 91.7 114.1 93.1C116.1 99.8 118.8 106.3 121.1 112.9C125.5 125.4 129.5 138 128.6 151.4C128.2 157.1 125.9 162.6 124.5 168.2C124.1 169.6 123.2 171 123.2 172.4C124.1 192.1 119.8 211.1 115.5 230.1C110.6 252 105.5 273.9 100.6 295.8C99.2 301.9 95.7 305 89.9 305.1C84.9 305.2 82 302.8 81.5 297.8C81.3 296 81.4 294.1 81.4 292.3C81.4 258.8 81.4 225.3 81.4 191.8C81.4 190.3 81.8 188.6 81.2 187.4C80.4 185.7 78.7 184.5 77.5 183C76.3 184.5 74.8 185.9 73.9 187.6C73.4 188.5 73.8 189.9 73.8 191.1C73.8 208 73.8 225.4 73.8 242.7Z" fill="#D7D6D6"/>
<path d="M56.9 27.7C57.8 22.3 58.2 18.3 59.3 14.5C62 5.19997 68.3 0.599976 77.6 0.599976C87 0.599976 93.1 5.09997 95.9 14.5C98.8 24.2 98.7 33.9 94.4 43.3C91.2 50.3 85.8 54.6 77.7 54.6C69.6 54.6 63.9 50.5 61.1 43.3C58.9 37.9 58 32.1 56.9 27.7Z" fill="#D7D6D6"/>
</svg>
