<svg width="14" height="25" viewBox="0 0 14 25" fill="none" xmlns="http://www.w3.org/2000/svg">
<path fill-rule="evenodd" clip-rule="evenodd" d="M9.34567 3.47294C9.34567 4.9033 8.18614 6.06283 6.75578 6.06283C5.32543 6.06283 4.1659 4.9033 4.1659 3.47294C4.1659 2.04259 5.32543 0.883057 6.75578 0.883057C8.18614 0.883057 9.34567 2.04259 9.34567 3.47294ZM12.2615 7.7316L13.9891 14.1789L13.972 14.1827L13.9736 14.1933C13.9809 14.243 13.9882 14.2928 13.9882 14.3445C13.9889 14.601 13.8999 14.8497 13.7366 15.0474C13.5733 15.2452 13.3459 15.3795 13.0939 15.4273C12.8419 15.475 12.5812 15.4331 12.3568 15.3088C12.1325 15.1845 11.9587 14.9857 11.8655 14.7467L11.8581 14.7489L10.5927 10.027L10.5793 10.0304C10.5423 9.87822 10.4112 9.76273 10.2478 9.76273C10.0554 9.76273 9.89978 9.919 9.89978 10.1107C9.89978 10.1386 9.90722 10.1641 9.91461 10.1895C9.91591 10.194 9.9172 10.1984 9.91845 10.2029L9.91192 10.2048L11.935 17.7543C11.9682 17.8223 11.9879 17.8961 11.9932 17.9716L11.9975 17.9875L11.995 17.9881C11.9952 17.9922 11.9958 17.9963 11.9964 18.0005C11.997 18.0048 11.9975 18.0092 11.9975 18.0136C11.9975 18.0912 11.9822 18.168 11.9525 18.2397C11.9228 18.3113 11.8793 18.3765 11.8245 18.4313C11.7696 18.4861 11.7045 18.5296 11.6328 18.5593C11.5611 18.5889 11.4843 18.6042 11.4067 18.6041H9.90164V23.6096C9.90164 23.9473 9.76748 24.2713 9.52866 24.5101C9.28983 24.7489 8.96592 24.8831 8.62818 24.8831C8.29044 24.8831 7.96653 24.7489 7.72771 24.5101C7.48888 24.2713 7.35472 23.9473 7.35472 23.6096V18.6041H6.63067V23.6096C6.63067 23.9473 6.4965 24.2713 6.25768 24.5101C6.01886 24.7489 5.69495 24.8831 5.3572 24.8831C5.01946 24.8831 4.69555 24.7489 4.45673 24.5101C4.21791 24.2713 4.08374 23.9473 4.08374 23.6096V18.6041H2.58335C2.25712 18.6041 1.99253 18.3399 1.99253 18.0136C1.99253 18.009 1.99316 18.0045 1.99379 17.9999C1.99433 17.996 1.99488 17.9921 1.99502 17.9881L1.99253 17.9875L1.99689 17.9716C2.00211 17.8961 2.02188 17.8223 2.0551 17.7543L4.08405 10.182V10.1338C4.08434 10.1302 4.08535 10.1268 4.08636 10.1234C4.08755 10.1195 4.08872 10.1156 4.08872 10.1114C4.08872 10.1072 4.08755 10.1033 4.08636 10.0993C4.08535 10.0959 4.08434 10.0925 4.08405 10.089V10.0379H4.07378C4.03923 9.88227 3.90693 9.76335 3.7407 9.76335C3.57448 9.76335 3.44218 9.88227 3.40763 10.0379H3.39767V10.0202L2.13043 14.7495L2.12265 14.7473C2.04224 14.953 1.90173 15.1296 1.71943 15.2542C1.53713 15.3788 1.32151 15.4456 1.1007 15.4458C0.808777 15.4458 0.528808 15.3299 0.322387 15.1235C0.115966 14.917 0 14.6371 0 14.3451C0 14.2934 0.00732423 14.2436 0.0146283 14.1939L0.0161862 14.1833L0 14.1789L1.72763 7.73191C1.72818 7.72879 1.72905 7.72578 1.72994 7.72275C1.73055 7.72064 1.73116 7.71852 1.73168 7.71635L1.76218 7.60304L1.76654 7.60429C1.92405 7.11308 2.37915 6.75479 2.92296 6.75479V6.73362H11.0537V6.75604C11.0559 6.75604 11.0579 6.75572 11.0599 6.75541C11.062 6.7551 11.064 6.75479 11.0662 6.75479C11.61 6.75479 12.0651 7.11277 12.2226 7.60429L12.2269 7.60304L12.2574 7.71666C12.2587 7.72164 12.2606 7.72662 12.2615 7.7316Z" fill="#8912FB"/>
</svg>
