<svg width="42" height="31" viewBox="0 0 42 31" fill="none" xmlns="http://www.w3.org/2000/svg">
<path fill-rule="evenodd" clip-rule="evenodd" d="M19.7286 6.49625C19.6571 6.42477 19.5576 6.32534 19.3961 6.18861C19.5942 6.01132 19.7924 5.83623 19.9896 5.66194C20.7326 5.0053 21.4627 4.36018 22.1306 3.65296C22.3419 3.44164 22.4285 3.09312 22.514 2.74876C22.5492 2.60698 22.5843 2.46591 22.6278 2.33541C22.4805 2.38451 22.3224 2.42013 22.1651 2.45559C21.8445 2.52786 21.527 2.59943 21.3102 2.78288C20.6511 3.37265 20.0403 3.99874 19.4189 4.63579C19.1497 4.91172 18.8785 5.18971 18.6006 5.46769L18.6005 5.46764C18.3768 5.16937 18.3022 5.06994 18.2525 4.9705C16.9847 2.18626 14.8468 0.744414 12.1869 0.89357C9.47718 1.06759 7.53816 2.7083 6.5935 5.59199C6.4692 5.98974 5.94716 6.41235 5.52455 6.53664C2.7403 7.40672 1.00015 9.6192 1.00015 12.5277C0.975288 17.3007 4.10757 21.7008 8.63197 23.267C8.9805 23.3937 9.37698 23.4877 9.77076 23.5809C10.6128 23.7804 11.4424 23.9769 11.7642 24.4851C12.1583 25.1191 12.08 26.0247 12.0014 26.9334C11.966 27.343 11.9305 27.7532 11.9383 28.1394V28.388C12.0128 29.1587 11.6151 29.4072 10.8942 29.3824C9.94951 29.3575 8.98 29.3327 8.03534 29.4072C7.84232 29.4248 7.64929 29.591 7.45627 29.7572C7.37584 29.8264 7.29541 29.8957 7.21498 29.9542C7.2906 30.0146 7.36622 30.0912 7.44253 30.1685C7.61711 30.3454 7.79535 30.5259 7.98562 30.5259C11.0185 30.5756 14.0264 30.5756 17.0593 30.5259C17.2417 30.5259 17.4131 30.36 17.5881 30.1904C17.6755 30.1058 17.7638 30.0204 17.8548 29.9542C17.7568 29.8888 17.6642 29.8101 17.5734 29.733C17.3878 29.5752 17.2099 29.4239 17.0096 29.4072C16.1395 29.3327 15.2694 29.3327 14.3993 29.3824C13.4795 29.4321 13.0072 29.1338 13.1066 28.1146C13.1812 27.1699 13.1812 26.2004 13.1066 25.2557C13.0321 24.2614 13.405 23.9382 14.3745 23.7642C19.3463 22.8444 22.9261 19.3641 23.821 14.7402C24.6165 10.713 23.5476 8.50053 19.8933 6.63608C19.8435 6.61122 19.8 6.56772 19.7286 6.49625ZM9.44865 13.0304C10.4706 13.0277 11.4917 13.0249 12.51 13.0249C13.5219 13.0249 14.5338 13.0277 15.5447 13.0305C17.5638 13.036 19.5793 13.0415 21.5837 13.0249C22.6278 13.0001 22.8764 13.373 22.6775 14.3425C21.7577 19.2149 17.4073 22.7947 12.3857 22.7449C7.46358 22.6952 3.21263 19.0409 2.34255 14.2182C2.16854 13.3232 2.39227 13.0249 3.31207 13.0249C5.35145 13.0415 7.4019 13.036 9.44865 13.0304ZM12.8758 8.72007C12.6749 8.88644 12.4713 9.055 12.2614 9.22145C11.4162 7.95363 10.0987 6.85981 8.25908 6.46206C8.08506 6.41235 7.86133 5.86544 7.91105 5.61685C8.28394 3.72754 10.4467 2.11168 12.51 2.11168C14.5734 2.08682 16.7361 3.70268 17.1339 5.59199C17.1836 5.86544 17.0096 6.33777 16.7858 6.46206C16.4387 6.65241 16.0664 6.80745 15.6916 6.96354C15.2342 7.154 14.7732 7.34601 14.3496 7.60559C13.8386 7.9228 13.365 8.31495 12.8758 8.72007ZM22.6775 11.6825H13.2807C13.753 9.19659 15.692 7.55588 18.0039 7.55588C20.3159 7.58074 22.3046 9.24631 22.6775 11.6825ZM6.91667 7.58074C9.32803 7.4813 11.5654 9.39547 11.6897 11.7322H2.46685C2.49171 9.56948 4.55503 7.65531 6.91667 7.58074ZM27.8743 16.2317V22.5709C27.8743 23.1302 27.8758 23.6896 27.8774 24.2489C27.882 25.9269 27.8867 27.6049 27.8494 29.2829C27.8245 30.2524 28.1974 30.5756 29.167 30.5756C32.697 30.5259 36.2021 30.5259 39.7322 30.5756C40.7514 30.6004 41 30.153 41 29.2332C40.9876 27.058 40.9876 24.8828 40.9876 22.7076C40.9876 20.5324 40.9876 18.3572 40.9751 16.182C40.9503 13.9198 40.0056 12.0554 38.1412 10.7875C37.4948 10.3401 37.3208 9.86773 37.3208 9.14681C37.3315 8.15611 37.3284 7.16085 37.3254 6.16493C37.3213 4.83675 37.3173 3.50741 37.3457 2.18619C37.3705 1.31612 37.0971 0.893508 36.1524 0.918368C35.0338 0.968086 33.9151 0.968086 32.7964 0.918368C31.8269 0.868649 31.4789 1.2664 31.5037 2.23591C31.5321 3.54267 31.5281 4.84131 31.524 6.14111C31.521 7.1162 31.5179 8.09193 31.5286 9.07224C31.5286 9.84288 31.3297 10.3649 30.6585 10.8372C28.7941 12.1051 27.8991 13.9695 27.8743 16.2317ZM37.5446 11.9559C38.8372 12.652 39.4339 13.9447 39.5582 15.5605C39.2244 15.5605 38.897 15.5637 38.574 15.5669C37.6218 15.5761 36.7076 15.5851 35.7795 15.5108C34.9343 15.4859 34.6111 15.8091 34.6111 16.6792C34.636 19.6375 34.636 22.5709 34.6111 25.5043C34.6111 26.2998 34.9095 26.6478 35.705 26.6229C36.227 26.6105 36.7429 26.6167 37.2587 26.6229C37.7745 26.6292 38.2903 26.6354 38.8124 26.6229C39.8037 26.5808 39.7929 27.1649 39.782 27.7528C39.7801 27.8579 39.7781 27.963 39.7819 28.0648C39.8068 28.7857 39.757 29.3823 38.7627 29.3575C35.8541 29.3326 32.9704 29.3326 30.0619 29.3575C29.2912 29.3575 29.0675 29.0343 29.0675 28.3134C29.0782 26.5667 29.0751 24.8155 29.0721 23.0616C29.068 20.7218 29.064 18.3773 29.0924 16.0329C29.1172 14.1187 30.0122 12.6023 31.6777 11.6576C32.4981 11.2101 32.7716 10.6384 32.697 9.7683C32.6805 9.48749 32.6859 9.21766 32.6914 8.94422C32.6942 8.80614 32.697 8.66713 32.697 8.52533C32.7092 7.40193 32.6674 6.90831 32.8928 6.688C33.1263 6.45978 33.6464 6.52481 34.81 6.48686C35.8293 6.43714 36.2519 6.76032 36.1276 7.80441C36.1026 8.01635 36.109 8.22828 36.1152 8.43708C36.1214 8.64464 36.1275 8.8491 36.1027 9.04738C35.9287 10.3401 36.2767 11.2599 37.5446 11.9559ZM39.757 19.5629V21.1787C39.757 21.4456 39.7555 21.7124 39.7539 21.9796C39.7493 22.7829 39.7446 23.5897 39.7819 24.4105C39.8068 25.2308 39.4587 25.5043 38.6632 25.4794C36.9476 25.4418 36.2476 25.562 35.969 25.2742C35.6946 24.9907 35.8291 24.3113 35.8044 22.6952C35.7937 22.0241 35.7968 21.3485 35.7998 20.6723C35.8039 19.7702 35.8079 18.867 35.7795 17.9719C35.7547 17.1267 36.0033 16.7538 36.8982 16.7786C38.636 16.8286 39.3301 16.7215 39.6002 17.0105C39.8672 17.2961 39.72 17.9688 39.757 19.5629ZM32.8935 2.38043C33.1006 2.16134 33.5395 2.16134 34.4869 2.16134C35.3198 2.16134 35.7299 2.16134 35.9285 2.36628C36.1212 2.56501 36.1149 2.95645 36.1027 3.72747C36.1027 5.29361 36.1027 5.29361 34.3377 5.29361C33.5255 5.28131 33.1154 5.27509 32.9083 5.06691C32.697 4.85453 32.697 4.43196 32.697 3.57832C32.7085 2.92187 32.7147 2.56954 32.8935 2.38043Z" fill="white" stroke="white" stroke-width="0.4"/>
</svg>
