<svg version="1.2" xmlns="http://www.w3.org/2000/svg" xmlnsxlink="http://www.w3.org/1999/xlink" overflow="visible" preserveAspectRatio="none" viewBox="0 0 24 24" width="32" height="32"><g><path  id="trophy" d="M8.11,11.86c-0.91-0.17-1.75-0.58-2.45-1.18c-0.55-0.39-0.91-1-0.99-1.68V8h2.67  C7.32,9.33,7.58,10.64,8.11,11.86C8.11,11.86,8.11,11.86,8.11,11.86z M19.33,9c-0.08,0.68-0.44,1.3-1,1.69  c-0.7,0.6-1.54,1.01-2.45,1.18c0.54-1.22,0.8-2.54,0.78-3.87h2.67V9L19.33,9z M20.66,7.67c0-0.55-0.45-1-1-1h-3v-1  c0-0.92-0.74-1.66-1.66-1.67H9C8.08,4.01,7.34,4.75,7.34,5.67v1h-3c-0.55,0-1,0.45-1,1V9c0.01,0.53,0.16,1.04,0.43,1.49  c0.31,0.52,0.7,0.97,1.17,1.35c0.54,0.43,1.15,0.76,1.8,1c0.72,0.28,1.49,0.45,2.26,0.48c0.29,0.37,0.63,0.71,1,1  c0.24,0.2,0.43,0.46,0.55,0.75c0.11,0.3,0.16,0.61,0.15,0.93c0.01,0.34-0.1,0.68-0.32,0.95c-0.26,0.28-0.62,0.42-1,0.39  c-0.5-0.01-0.99,0.16-1.39,0.47c-0.4,0.26-0.64,0.71-0.65,1.19v0.67C7.33,19.85,7.47,19.99,7.65,20c0.01,0,0.01,0,0.02,0h8.66  c0.18,0.01,0.32-0.13,0.33-0.31c0-0.01,0-0.01,0-0.02V19c0-0.47-0.22-0.92-0.61-1.19c-0.4-0.31-0.89-0.48-1.39-0.47  c-0.38,0.03-0.74-0.11-1-0.39c-0.22-0.27-0.34-0.6-0.33-0.95c-0.01-0.32,0.04-0.63,0.15-0.93c0.11-0.29,0.29-0.55,0.52-0.76  c0.37-0.29,0.71-0.63,1-1c0.77-0.03,1.52-0.19,2.24-0.46c0.65-0.24,1.26-0.57,1.8-1c0.47-0.38,0.86-0.83,1.17-1.35  c0.28-0.45,0.44-0.97,0.45-1.5V7.67L20.66,7.67z" style="fill: rgb(60, 71, 76);" vector-effect="non-scaling-stroke"/></g></svg>