<svg width="30" height="31" viewBox="0 0 30 31" fill="none" xmlns="http://www.w3.org/2000/svg">
<path d="M29.7046 12.4366C29.8958 13.4614 30 14.5327 30 15.6508C30 24.3959 24.1471 30.6142 15.3071 30.6142C13.2968 30.6148 11.306 30.2193 9.4486 29.4503C7.59118 28.6812 5.9035 27.5537 4.48198 26.1322C3.06046 24.7107 1.93297 23.023 1.16394 21.1656C0.394899 19.3082 -0.000612225 17.3174 7.11324e-07 15.3071C-0.000612225 13.2968 0.394899 11.306 1.16394 9.4486C1.93297 7.59119 3.06046 5.9035 4.48198 4.48198C5.9035 3.06046 7.59118 1.93297 9.4486 1.16394C11.306 0.394899 13.2968 -0.000612225 15.3071 7.11324e-07C19.4402 7.11324e-07 22.8938 1.52076 25.5435 3.99005L21.2284 8.30509V8.2942C19.6221 6.76411 17.5836 5.97885 15.3071 5.97885C10.2566 5.97885 6.15145 10.2457 6.15145 15.2978C6.15145 20.3483 10.2566 24.6245 15.3071 24.6245C19.8896 24.6245 23.0089 22.0044 23.6495 18.4062H15.3071V12.4366H29.7061H29.7046Z" fill="white"/>
</svg>
