<svg width="33" height="40" viewBox="0 0 33 40" fill="none" xmlns="http://www.w3.org/2000/svg">
<path d="M12.496 13.5207C11.5713 14.2455 10.9215 14.7203 10.3467 15.2451C9.79687 15.72 9.34702 15.62 8.7972 15.1952C7.17272 13.9706 5.49824 12.7959 3.82378 11.6463C3.57386 11.4713 3.124 11.5713 2.74912 11.5463C2.72413 11.6713 2.72413 11.7962 2.69914 11.9212C2.87408 12.1461 3.17398 12.3461 3.22396 12.596C3.29894 12.9209 3.32394 13.4707 3.17399 13.5707C2.89908 13.7456 2.32425 13.7956 2.09932 13.6207C1.39954 13.0958 0.749758 12.496 0.199933 11.8212C-0.0249951 11.5463 0.0499841 11.0215 0 10.6216C0.399873 10.5966 0.824734 10.5466 1.19961 10.5966C1.39955 10.6216 1.57449 10.8715 1.64947 10.9215C2.72413 9.89684 3.7488 8.92215 4.82346 7.92247C4.62352 7.67255 4.34862 7.47262 4.29863 7.2227C4.22366 6.87281 4.17367 6.29799 4.37361 6.14804C4.59853 5.9731 5.19834 5.99809 5.44826 6.19803C6.09805 6.69787 6.72286 7.27268 7.24769 7.92247C7.47262 8.19738 7.42263 8.69724 7.47261 9.1221C7.04774 9.1221 6.5979 9.14708 6.17304 9.0971C5.99809 9.07211 5.84814 8.84717 5.62321 8.67223C5.3483 8.92215 5.12337 9.14708 4.74849 9.47198C6.39796 10.6216 7.87249 11.6463 9.44699 12.7459C10.5466 11.8212 11.5963 10.8965 12.696 10.0468C13.1708 9.67191 13.7706 9.22207 14.2954 9.24706C15.9449 9.37202 17.5694 9.7219 19.2189 9.94683C19.6187 9.99682 20.1186 10.0218 20.4185 9.82187C21.7431 8.97214 23.1926 8.19739 24.2673 7.07275C25.3419 5.92312 26.0167 4.42359 26.8664 3.04903C26.7165 2.94906 26.5665 2.84909 26.4166 2.74912C26.2416 2.97405 26.0917 3.22398 25.9167 3.42391C25.6418 3.7738 25.3169 4.0737 25.042 4.3986C24.7921 4.02372 24.3922 3.67383 24.2923 3.27396C24.1673 2.62417 24.1423 1.92439 24.2923 1.29959C24.3922 0.82474 24.8171 0.424865 25.117 0C25.3919 0.399873 25.6668 0.79975 25.9167 1.19962C25.9667 1.29959 25.9667 1.42455 26.0167 1.5745C27.4163 1.5745 28.8158 1.5745 30.2404 1.5745C30.2654 1.54951 30.3403 1.49953 30.3653 1.44954C30.4903 0.824742 30.3403 -0.0999636 31.34 0.0749807C31.6649 0.124965 31.8898 1.02468 32.0148 1.54951C32.1397 2.07434 32.1397 2.64916 32.0148 3.149C31.9148 3.59885 31.5399 3.97373 31.29 4.37361C31.0151 3.99873 30.7152 3.62384 30.4653 3.22397C30.3903 3.124 30.4153 2.99905 30.3403 2.54919C29.8905 2.8241 29.5406 3.04903 29.2157 3.27396C29.1657 3.32394 29.1157 3.42391 29.0907 3.49888C27.7411 7.59758 24.8171 10.2967 21.2182 12.421C20.7184 12.7209 20.2935 13.3707 20.1686 13.9456C19.5438 16.6947 19.0439 19.4688 18.5441 22.2679C18.4691 22.6178 18.719 23.0427 18.819 23.4425C19.9686 28.166 21.1183 32.9145 22.2179 37.638C22.4928 38.8376 22.018 39.6874 21.0683 39.9373C20.0936 40.1872 19.2688 39.5874 18.9689 38.3378C17.8693 33.7642 16.7696 29.2157 15.595 24.2923C15.4201 24.8171 15.3201 25.042 15.2701 25.2919C14.5953 29.6156 13.9206 33.9392 13.2458 38.2378C13.0458 39.5374 12.1461 40.2622 11.1215 39.9123C10.0468 39.5374 9.87185 38.6877 10.0218 37.688C10.6466 33.7392 11.1714 29.7905 11.8962 25.8418C12.621 21.868 12.2211 17.8693 12.496 13.5207Z" fill="white"/>
<path d="M20.2185 5.39832C20.2435 7.17276 18.769 8.64728 16.9696 8.67227C15.1702 8.69726 13.6706 7.27272 13.6456 5.49829C13.6207 3.69886 15.0452 2.24932 16.8696 2.24932C18.694 2.19934 20.1936 3.62389 20.2185 5.39832Z" fill="white"/>
</svg>