<svg width="30" height="23" viewBox="0 0 30 23" fill="none" xmlns="http://www.w3.org/2000/svg">
<path fill-rule="evenodd" clip-rule="evenodd" d="M14.0464 4.20989C13.9928 4.15629 13.9182 4.08171 13.797 3.97917C13.9457 3.8462 14.0943 3.71488 14.2422 3.58416C14.7995 3.09168 15.347 2.60784 15.8479 2.07743C16.0064 1.91894 16.0714 1.65755 16.1355 1.39928C16.1619 1.29294 16.1882 1.18714 16.2208 1.08927C16.1104 1.12609 15.9918 1.15281 15.8739 1.1794C15.6334 1.23361 15.3953 1.28728 15.2327 1.42487C14.7383 1.8672 14.2803 2.33676 13.8142 2.81455C13.6123 3.0215 13.4089 3.22999 13.2004 3.43848L13.2004 3.43844C13.0326 3.21473 12.9767 3.14016 12.9394 3.06559C11.9885 0.9774 10.3851 -0.103982 8.39014 0.00788496C6.35789 0.138397 4.90362 1.36893 4.19513 3.5317C4.1019 3.83001 3.71037 4.14697 3.39341 4.24019C1.30523 4.89275 0.000110186 6.55211 0.000110186 8.73352C-0.0185343 12.3133 2.33067 15.6133 5.72398 16.7879C5.98537 16.883 6.28274 16.9534 6.57807 17.0234C7.20959 17.173 7.83181 17.3204 8.07318 17.7015C8.36876 18.177 8.31002 18.8563 8.25108 19.5377C8.22451 19.8449 8.1979 20.1526 8.2037 20.4423V20.6287C8.25963 21.2067 7.96132 21.3931 7.42063 21.3745C6.71213 21.3559 5.985 21.3372 5.27651 21.3931C5.13174 21.4063 4.98697 21.5309 4.8422 21.6556C4.78188 21.7075 4.72156 21.7595 4.66124 21.8033C4.71795 21.8487 4.77466 21.9061 4.8319 21.9641C4.96283 22.0967 5.09651 22.2321 5.23922 22.2321C7.51385 22.2694 9.76983 22.2694 12.0445 22.2321C12.1813 22.2321 12.3098 22.1077 12.4411 21.9805C12.5066 21.9171 12.5728 21.853 12.6411 21.8033C12.5676 21.7543 12.4981 21.6953 12.4301 21.6374C12.2909 21.5191 12.1574 21.4057 12.0072 21.3931C11.3546 21.3372 10.7021 21.3372 10.0495 21.3745C9.35966 21.4118 9.00541 21.1881 9.07999 20.4236C9.13592 19.7151 9.13592 18.988 9.07999 18.2795C9.02405 17.5337 9.30372 17.2913 10.0309 17.1608C13.7598 16.471 16.4446 13.8608 17.1158 10.3929C17.7124 7.37247 16.9107 5.71311 14.1699 4.31477C14.1326 4.29612 14.1 4.26349 14.0464 4.20989ZM6.33648 9.11055C7.10298 9.10847 7.86878 9.10641 8.63252 9.10641C9.39142 9.10641 10.1503 9.10848 10.9085 9.11056C12.4229 9.1147 13.9345 9.11883 15.4378 9.10641C16.2208 9.08776 16.4073 9.36743 16.2581 10.0946C15.5683 13.7489 12.3055 16.4337 8.5393 16.3964C4.84768 16.3591 1.65947 13.6184 1.00691 10.0013C0.876402 9.33014 1.0442 9.10641 1.73405 9.10641C3.26359 9.11884 4.80142 9.11469 6.33648 9.11055ZM8.90683 5.87776C8.75614 6.00254 8.60348 6.12896 8.44607 6.2538C7.81216 5.30293 6.824 4.48257 5.44431 4.18426C5.3138 4.14697 5.146 3.73679 5.18328 3.55034C5.46295 2.13336 7.08502 0.921466 8.63252 0.921466C10.18 0.902822 11.8021 2.11471 12.1004 3.5317C12.1377 3.73679 12.0072 4.09103 11.8394 4.18426C11.579 4.32702 11.2998 4.4433 11.0187 4.56036C10.6757 4.70321 10.3299 4.84721 10.0122 5.0419C9.62893 5.27981 9.27375 5.57392 8.90683 5.87776ZM16.2581 8.0996H9.2105C9.56474 6.23515 11.019 5.00461 12.753 5.00461C14.4869 5.02326 15.9785 6.27244 16.2581 8.0996ZM4.4375 5.02326C6.24602 4.94868 7.92403 6.38431 8.01725 8.13689H1.10014C1.11878 6.51482 2.66628 5.07919 4.4375 5.02326ZM20.1557 11.5115V16.2659C20.1557 16.6854 20.1569 17.1049 20.158 17.5244C20.1615 18.7829 20.165 20.0414 20.1371 21.2999C20.1184 22.027 20.3981 22.2694 21.1252 22.2694C23.7727 22.2321 26.4016 22.2321 29.0491 22.2694C29.8136 22.288 30 21.9524 30 21.2626C29.9907 19.6312 29.9907 17.9998 29.9907 16.3684C29.9907 14.737 29.9907 13.1056 29.9814 11.4742C29.9627 9.77757 29.2542 8.37923 27.8559 7.42836C27.3711 7.09275 27.2406 6.73851 27.2406 6.19782C27.2486 5.45479 27.2463 4.70834 27.244 3.96141C27.241 2.96527 27.2379 1.96827 27.2593 0.977354C27.2779 0.324796 27.0728 0.00783883 26.3643 0.0264833C25.5253 0.0637724 24.6863 0.0637724 23.8473 0.0264833C23.1202 -0.0108057 22.8592 0.287507 22.8778 1.01464C22.8991 1.99471 22.8961 2.96869 22.893 3.94354C22.8907 4.67485 22.8885 5.40666 22.8964 6.14188C22.8964 6.71986 22.7473 7.1114 22.2439 7.46564C20.8455 8.41652 20.1743 9.81485 20.1557 11.5115ZM27.4084 8.30465C28.3779 8.82669 28.8254 9.79621 28.9186 11.0081C28.6683 11.0081 28.4227 11.0105 28.1805 11.0129C27.4664 11.0198 26.7807 11.0265 26.0847 10.9708C25.4507 10.9522 25.2084 11.1945 25.2084 11.8471C25.227 14.0658 25.227 16.2659 25.2084 18.4659C25.2084 19.0625 25.4321 19.3236 26.0287 19.3049C26.4203 19.2956 26.8071 19.3003 27.194 19.3049C27.5809 19.3096 27.9678 19.3142 28.3593 19.3049C29.1027 19.2733 29.0947 19.7114 29.0865 20.1523C29.085 20.2311 29.0836 20.31 29.0864 20.3863C29.1051 20.927 29.0678 21.3745 28.322 21.3558C26.1406 21.3372 23.9778 21.3372 21.7964 21.3558C21.2184 21.3558 21.0506 21.1134 21.0506 20.5727C21.0586 19.2627 21.0563 17.9493 21.0541 16.6339C21.051 14.8791 21.048 13.1207 21.0693 11.3623C21.0879 9.92672 21.7591 8.7894 23.0083 8.08091C23.6236 7.74531 23.8287 7.31649 23.7727 6.66393C23.7603 6.45333 23.7644 6.25095 23.7685 6.04587C23.7706 5.94231 23.7727 5.83806 23.7727 5.73171C23.7819 4.88915 23.7506 4.51894 23.9196 4.35371C24.0947 4.18255 24.4848 4.23131 25.3575 4.20286C26.1219 4.16557 26.4389 4.40794 26.3457 5.19101C26.327 5.34997 26.3317 5.50892 26.3364 5.66552C26.341 5.82119 26.3456 5.97453 26.327 6.12324C26.1965 7.09275 26.4575 7.7826 27.4084 8.30465ZM29.0678 14.0099V15.2218C29.0678 15.4219 29.0666 15.622 29.0654 15.8224C29.062 16.4249 29.0584 17.03 29.0864 17.6455C29.1051 18.2608 28.844 18.4659 28.2474 18.4473C26.9607 18.4191 26.4357 18.5092 26.2268 18.2933C26.0209 18.0807 26.1218 17.5712 26.1033 16.3591C26.0953 15.8558 26.0976 15.3491 26.0999 14.8419C26.1029 14.1654 26.106 13.4879 26.0847 12.8166C26.066 12.1827 26.2525 11.903 26.9237 11.9217C28.227 11.9592 28.7476 11.8788 28.9501 12.0956C29.1504 12.3098 29.04 12.8143 29.0678 14.0099ZM23.9201 1.12303C24.0755 0.958709 24.4046 0.958709 25.1151 0.958709C25.7399 0.958709 26.0474 0.958709 26.1964 1.11241C26.3409 1.26146 26.3362 1.55505 26.327 2.13331C26.327 3.30792 26.327 3.30792 25.0033 3.30792C24.3941 3.29869 24.0865 3.29403 23.9312 3.13789C23.7727 2.9786 23.7727 2.66168 23.7727 2.02145C23.7814 1.52911 23.786 1.26486 23.9201 1.12303Z" fill="white"/>
</svg>
