<svg width="20" height="40" viewBox="0 0 20 40" fill="none" xmlns="http://www.w3.org/2000/svg">
<path d="M6.40404 25.6162C5.37374 26.303 4.52525 26.8687 3.59596 27.4748C2.40404 25.7172 1.23232 24 0 22.1616C0.727273 21.6566 1.43434 21.1919 2.12121 20.7273C2.20202 20.8283 2.28283 20.9293 2.36364 21.0303C1.85859 21.4748 1.35354 21.9192 0.787879 22.4041C1.73737 23.8182 2.70707 25.2323 3.73737 26.7475C5.59596 25.495 7.43434 24.2626 9.35353 22.9495C8.40404 21.5556 7.51515 20.1818 6.56566 18.8687C6.44444 18.7071 6.0202 18.7677 5.69697 18.7071C5.71717 18.7475 5.65657 18.6465 5.67677 18.6263C7.13131 17.0303 6.08081 15.1111 6.46465 13.394C6.36364 13.3738 6.26263 13.3535 6.16162 13.3333C5.9596 14.2424 5.65657 15.1313 5.59596 16.0404C5.45455 18.2222 5.43434 20.4041 5.37374 22.5859C5.37374 22.8283 5.41414 23.0505 5.39394 23.2929C5.35354 24.0808 4.94949 24.5859 4.16162 24.6263C3.33333 24.6869 2.78788 24.2424 2.72727 23.394C2.44444 19.9192 2.46465 16.4647 3.43434 13.0707C3.69697 12.1414 4.12121 11.2323 4.62626 10.4243C5.45455 9.13133 6.64646 8.42426 8.26263 8.48486C10.0202 8.54547 11.7576 8.56567 13.5152 8.48486C15.5354 8.38385 16.8283 9.33335 17.7576 10.9899C18.8081 12.8889 19.1717 14.9899 19.2727 17.1111C19.3737 19.0505 19.3535 21.0101 19.2929 22.9697C19.2727 23.4546 18.9293 23.9192 18.7273 24.4041C18.6263 24.6263 18.5051 24.8283 18.3636 25.0707C19.7778 25.495 19.7778 25.495 19.7778 26.9697C19.7778 28.7475 19.7576 30.5455 19.798 32.3232C19.8182 33.1717 19.5354 33.5556 18.6465 33.5354C16.0808 33.495 16.303 33.7172 16.303 31.1919C16.303 29.7778 16.3232 28.3636 16.303 26.9495C16.2828 25.9798 16.1818 24.9899 17.7374 25.2727C17.6566 24.9697 17.6768 24.7273 17.5758 24.6667C16.5455 24.1414 16.6667 23.2323 16.6869 22.303C16.7677 19.2323 16.8283 16.1818 15.6768 13.2121C15.6566 13.4344 15.6162 13.6768 15.6162 13.899C15.6162 21.7374 15.596 29.5758 15.6162 37.4344C15.6162 38.5051 15.3535 39.3738 14.2828 39.8182C13.4545 40.1616 12.6061 40.0202 12.0808 39.3333C11.697 38.8485 11.4747 38.1212 11.4545 37.5152C11.4141 32.8687 11.4343 28.2222 11.4141 23.5758C11.4141 23.1515 11.5556 22.5657 10.6465 22.7677C10.6465 23.1313 10.6465 23.495 10.6465 23.8586C10.6465 28.4041 10.6465 32.9495 10.6465 37.495C10.6465 38.9899 9.83838 39.9596 8.60606 40C7.27273 40 6.40404 38.9899 6.40404 37.4546C6.38384 33.5758 6.40404 29.7172 6.40404 25.6162ZM10.303 12.1414C10.0606 13.9394 9.93939 15.7172 9.53535 17.4344C9.17172 19.0101 10.2222 19.697 11.0303 20.7879C11.596 19.9596 12.4848 19.2525 12.4444 18.5859C12.3636 16.4243 11.9394 14.2828 11.6364 12.1414C11.1515 12.1414 10.7677 12.1414 10.303 12.1414ZM10.9899 11.8586C11.3737 11.4344 11.7778 11.1717 11.798 10.8687C11.8384 10.4041 11.7576 9.899 11.0101 9.8788C10.1616 9.8586 10.1616 10.4445 10.1616 10.9293C10.1616 11.1919 10.5859 11.4344 10.9899 11.8586Z" fill="#8912FB"/>
<path d="M7.19192 3.77778C7.19192 1.69697 8.86869 0 10.9697 0C13.0707 0 14.7677 1.65657 14.8081 3.73737C14.8485 5.83838 13.0707 7.61616 10.9697 7.59596C8.86869 7.57576 7.19192 5.87879 7.19192 3.77778Z" fill="#8912FB"/>
<path d="M7.51515 22.8888C6.92929 22.0403 6.32323 21.1919 5.73737 20.3434C5.83838 20.2828 5.93939 20.202 6.0404 20.1414C6.62626 20.9898 7.23232 21.8383 7.81818 22.707C7.71717 22.7676 7.61616 22.8282 7.51515 22.8888Z" fill="#8912FB"/>
<path d="M10.303 12.1414C10.7677 12.1414 11.1515 12.1414 11.6566 12.1414C11.9394 14.2828 12.3636 16.4242 12.4646 18.5858C12.4849 19.2525 11.6162 19.9595 11.0505 20.7878C10.2424 19.6969 9.19192 19.01 9.55556 17.4343C9.9596 15.7171 10.0606 13.9191 10.303 12.1414Z" fill="white"/>
<path d="M10.9899 11.8585C10.5859 11.4343 10.1616 11.1919 10.1616 10.9495C10.1616 10.4646 10.1616 9.87874 11.0101 9.89895C11.7778 9.91915 11.8586 10.4242 11.798 10.8888C11.7778 11.1717 11.3737 11.4343 10.9899 11.8585Z" fill="white"/>
</svg>
