<svg width="39" height="40" viewBox="0 0 39 40" fill="none" xmlns="http://www.w3.org/2000/svg">
<path fill-rule="evenodd" clip-rule="evenodd" d="M22.1174 0.000338733C19.7374 0.0300889 17.8334 1.93409 17.8334 4.22486C17.8334 6.51562 19.7969 8.44939 22.1174 8.44939C24.4677 8.47914 26.4312 6.57513 26.4609 4.28436C26.4907 1.90435 24.5272 -0.0294114 22.1174 0.000338733ZM25.0894 29.6109L25.0929 29.612L25.0933 29.6121C25.5467 29.7567 26.0023 29.902 26.4609 30.0479C26.3869 30.7292 26.3128 31.3995 26.2397 32.0614L26.2397 32.0615C26.019 34.0587 25.8067 35.9804 25.6279 37.902C25.5089 39.1217 26.2527 39.8655 27.5914 39.9845C28.8409 40.1035 29.3764 39.5382 29.4657 38.2887C29.7334 35.046 30.0904 31.7735 30.4474 28.5307C30.5664 27.4894 30.2094 26.8944 29.1384 26.5969C27.4571 26.1074 25.791 25.5723 24.1183 25.035L24.1182 25.0349C23.4528 24.8212 22.7863 24.6071 22.1174 24.3954C22.6132 22.9306 23.0748 21.517 23.5282 20.1288L23.5283 20.1284C23.6734 19.6841 23.8176 19.2424 23.9619 18.8024C24.1109 18.348 24.2617 17.8918 24.413 17.4342L24.4137 17.4321C24.8665 16.0626 25.3234 14.6806 25.7469 13.2986C26.2527 11.6623 25.7469 10.5913 24.0809 10.0856C22.3256 9.57983 20.5406 9.16332 18.7259 8.86582C16.7326 8.56832 15.7806 9.40132 15.5128 11.3946C15.4215 12.0616 15.3105 12.7259 15.1996 13.389L15.1996 13.3891V13.3891L15.1996 13.3891C14.9496 14.885 14.7005 16.3754 14.6798 17.8801C14.6501 21.9559 12.9841 24.9904 9.89008 27.6382C7.20697 29.9104 4.77919 32.4379 2.35141 34.9653C1.79116 35.5486 1.23091 36.1319 0.667525 36.712C0.221272 37.1582 -0.16548 38.2887 0.0725212 38.7052C0.429523 39.2705 1.41127 39.7168 2.12527 39.687C2.86903 39.6573 3.70203 39.1217 4.26729 38.5862C6.49853 36.4442 8.69764 34.2701 10.8968 32.096C12.3629 30.6466 13.829 29.1971 15.3046 27.7572C15.6913 27.3704 16.4351 26.9539 16.8814 27.0729C19.6173 27.8656 22.3092 28.7241 25.0894 29.6109ZM26.6692 12.8524C26.4014 11.7516 26.2229 10.9484 26.0147 9.99636C26.9067 9.99636 27.7987 9.99265 28.6911 9.98893H28.6912H28.6912C31.3706 9.97777 34.0542 9.9666 36.7545 10.0559C37.1157 10.0771 37.4769 10.508 37.8272 10.926C37.9674 11.0933 38.1059 11.2586 38.242 11.3946C38.0948 11.5418 37.9476 11.7289 37.7995 11.917C37.4687 12.3373 37.1336 12.7631 36.7842 12.7631C34.1421 12.879 31.482 12.8685 28.8741 12.8582H28.874C28.1343 12.8553 27.3988 12.8524 26.6692 12.8524ZM14.4029 11.7389C14.5031 11.1598 14.6008 10.5946 14.7096 9.99636C13.8287 9.99636 12.9516 9.99262 12.0777 9.98888C9.46904 9.97774 6.88958 9.96673 4.32679 10.0559C3.96057 10.0762 3.60826 10.4722 3.26035 10.8633C3.09953 11.0441 2.93966 11.2238 2.77978 11.3649C2.93624 11.5213 3.0927 11.7176 3.25004 11.9151C3.6013 12.3558 3.95695 12.8021 4.32679 12.8226C6.78075 12.9119 9.25143 12.9007 11.7263 12.8896C12.5518 12.8859 13.3778 12.8821 14.2039 12.8821C14.2736 12.487 14.3388 12.1101 14.4029 11.7389Z" fill="#8912FB"/>
</svg>
