<svg width="12" height="25" viewBox="0 0 12 25" fill="none" xmlns="http://www.w3.org/2000/svg">
<path fill-rule="evenodd" clip-rule="evenodd" d="M8.18328 3.47246C8.18328 4.90254 7.02397 6.06185 5.59389 6.06185C4.1638 6.06185 3.00449 4.90254 3.00449 3.47246C3.00449 2.04237 4.1638 0.883057 5.59389 0.883057C7.02397 0.883057 8.18328 2.04237 8.18328 3.47246ZM10.4969 6.74552V6.75805C11.1114 6.82096 11.5925 7.33402 11.5919 7.96478V15.3019H11.5897C11.5897 15.5907 11.475 15.8676 11.2708 16.0718C11.0666 16.276 10.7897 16.3907 10.501 16.3907C10.2122 16.3907 9.9353 16.276 9.73112 16.0718C9.52695 15.8676 9.41224 15.5907 9.41224 15.3019H9.40034V10.1798C9.40034 10.0876 9.36371 9.9991 9.29848 9.93388C9.23326 9.86866 9.1448 9.83202 9.05257 9.83202C8.96033 9.83202 8.87187 9.86866 8.80665 9.93388C8.74143 9.9991 8.70479 10.0876 8.70479 10.1798V23.6089C8.69578 23.9406 8.55765 24.2558 8.31979 24.4873C8.08193 24.7188 7.76313 24.8483 7.43122 24.8483C7.09931 24.8483 6.78051 24.7188 6.54265 24.4873C6.30479 24.2558 6.16666 23.9406 6.15765 23.6089V16.8461H6.14857C6.14998 16.7989 6.1419 16.7519 6.12481 16.7079C6.10772 16.6639 6.08197 16.6238 6.04909 16.5899C6.0162 16.556 5.97685 16.5291 5.93337 16.5107C5.88989 16.4923 5.84315 16.4828 5.79594 16.4828C5.74873 16.4828 5.70199 16.4923 5.65851 16.5107C5.61503 16.5291 5.57568 16.556 5.5428 16.5899C5.50991 16.6238 5.48416 16.6639 5.46707 16.7079C5.44999 16.7519 5.4419 16.7989 5.44331 16.8461H5.43392V23.6089C5.43413 23.9466 5.30016 24.2706 5.0615 24.5095C4.82283 24.7485 4.49902 24.8828 4.16129 24.8831C3.82356 24.8833 3.49958 24.7493 3.26062 24.5106C3.02166 24.272 2.8873 23.9482 2.88709 23.6104V10.1798H2.88428C2.87645 9.99479 2.72619 9.84673 2.539 9.84673C2.44964 9.84691 2.36382 9.88171 2.29956 9.94381C2.2353 10.0059 2.19759 10.0905 2.19435 10.1798H2.19154V15.3016H2.18903C2.18903 15.4446 2.16088 15.5861 2.10618 15.7181C2.05148 15.8502 1.97131 15.9702 1.87024 16.0712C1.76917 16.1723 1.64919 16.2525 1.51714 16.3072C1.38508 16.3619 1.24355 16.39 1.10062 16.39C0.957688 16.39 0.816155 16.3619 0.684103 16.3072C0.552051 16.2525 0.432065 16.1723 0.330997 16.0712C0.229928 15.9702 0.149756 15.8502 0.0950586 15.7181C0.0403608 15.5861 0.0122082 15.4446 0.0122083 15.3016H0V7.96447H0.000939027C0.00325235 7.64268 0.132687 7.33485 0.361025 7.1081C0.589362 6.88134 0.898085 6.75405 1.21988 6.75398V6.74552H10.4969Z" fill= "#D7D6D6"/>
</svg>
