<svg width="32" height="32" viewBox="0 0 32 32" fill="none" xmlns="http://www.w3.org/2000/svg">
<path fill-rule="evenodd" clip-rule="evenodd" d="M30.7872 2.71148C30.3306 1.53739 29.3522 0.863368 27.7867 0.885112C26.9605 0.841626 26.2213 1.4939 25.5473 2.29837C24.4256 3.61176 23.2955 4.9167 22.1662 6.22064C20.7344 7.87398 19.304 9.52572 17.8939 11.191C17.3938 11.7564 16.8937 11.9955 16.1328 11.9955C12.0669 12.0173 9.76221 14.6916 8.89252 17.9964C8.83129 18.1801 8.95325 18.3961 9.07634 18.6141C9.12809 18.7058 9.18004 18.7978 9.21865 18.8879C9.29233 18.8343 9.36808 18.7848 9.44334 18.7357C9.61239 18.6253 9.77901 18.5165 9.91441 18.3661C9.99595 18.2709 10.035 18.1334 10.0741 17.9958C10.0975 17.9132 10.121 17.8307 10.1536 17.7573C11.4364 14.3654 13.154 13.1914 16.8068 13.0174C17.3721 12.9957 18.0678 12.6695 18.4592 12.2564C19.6403 10.9601 20.7736 9.6352 21.9099 8.30693C22.4888 7.63012 23.0685 6.95244 23.6557 6.27725C23.8945 5.99936 24.1323 5.72039 24.37 5.44155C25.1923 4.47678 26.0133 3.5136 26.8735 2.60277C27.6563 1.7983 28.6347 1.82004 29.3739 2.55928C30.1132 3.29853 30.0697 4.25519 29.2652 5.05967C29.0043 5.32058 28.7434 5.55974 28.4607 5.79891C27.5841 6.55036 26.7054 7.29781 25.8271 8.0449C23.8084 9.76208 21.792 11.4773 19.8072 13.2348C19.3506 13.6479 18.9375 14.3002 18.7853 14.909C18.4909 16.0236 18.3389 17.2196 18.1915 18.3789L18.1766 18.4965C18.145 18.7175 18.228 18.9498 18.3091 19.1771C18.3397 19.2629 18.3701 19.348 18.394 19.4314C18.4841 19.376 18.5919 19.3272 18.699 19.2786C18.928 19.1749 19.154 19.0725 19.1984 18.9096C19.2381 18.7849 19.2789 18.6594 19.3199 18.5334C19.5933 17.6925 19.8753 16.8252 19.8942 15.9744C19.916 14.9742 20.2856 14.322 21.0248 13.6914C23.5673 11.5514 26.0636 9.38052 28.5655 7.20478C29.0376 6.79425 29.5099 6.38355 29.9827 5.97285C30.9611 5.12489 31.2438 3.86383 30.7872 2.71148ZM5.02236 12.8652C7.95759 11.4302 11.1537 10.9736 14.3934 10.7996C14.581 10.7996 14.771 10.802 14.9619 10.8044C15.346 10.8093 15.7334 10.8142 16.111 10.7996C16.2015 10.7996 16.2979 10.8062 16.3954 10.8128C16.8601 10.8443 17.3503 10.8776 17.3503 10.2126C17.3503 10.0387 16.5024 9.69078 16.0675 9.71252L16.0319 9.71437C13.9563 9.82247 11.8595 9.93168 9.8057 10.2343C7.24009 10.604 4.80494 11.4084 2.67417 12.9739C1.65228 13.7131 1 14.6698 1 15.9744C1.04349 23.3885 5.00062 29.4982 13.2193 30.6723C17.6113 31.3028 21.8076 30.7158 25.4385 28.0632C29.5914 25.041 31.0481 20.649 30.9829 15.6917C30.9611 15.0177 30.6133 14.1045 30.0914 13.6914C28.8956 12.7347 27.5258 11.9737 26.1778 11.2345C25.9656 11.1284 25.6479 11.2124 25.335 11.2952C25.1989 11.3312 25.0637 11.3669 24.9385 11.3867C25.0188 11.4732 25.0973 11.5649 25.1761 11.6569C25.3746 11.8888 25.5747 12.1225 25.8082 12.2781C26.2264 12.5622 26.6619 12.8263 27.0969 13.0901C27.8603 13.553 28.6221 14.015 29.287 14.5828C30.2219 15.3873 30.1567 16.4092 29.2217 17.2354C28.3086 18.0399 27.2867 18.8226 26.1778 19.2357C19.7638 21.5622 13.241 21.5622 6.76176 19.5836C5.32675 19.1488 3.97872 18.2138 2.80463 17.2354C1.76099 16.3875 1.80447 15.4525 2.7394 14.4959C3.36993 13.8436 4.1744 13.2783 5.02236 12.8652ZM29.3087 18.8444L29.6348 19.04C29.5334 19.3697 29.4394 19.6994 29.3441 20.0334C29.276 20.2721 29.2073 20.513 29.1348 20.7577C27.4171 26.2368 23.2426 29.4764 17.5243 29.7591C13.9368 29.933 10.4797 29.5417 7.45752 27.4109C4.76145 25.4976 3.26122 22.8015 2.50023 19.6271C2.47335 19.5062 2.4797 19.3769 2.48847 19.1983C2.49389 19.0879 2.50023 18.9587 2.50023 18.8009C6.71827 21.5404 11.3494 22.1057 16.0241 22.084C20.6769 22.0622 25.2863 21.5839 29.3087 18.8444Z" fill="white" stroke="white" stroke-width="0.4"/>
</svg>
