<svg width="27" height="40" viewBox="0 0 27 40" fill="none" xmlns="http://www.w3.org/2000/svg">
<path fill-rule="evenodd" clip-rule="evenodd" d="M19.0391 3.49049C19.0665 5.46914 17.5276 7.06306 15.494 7.09054C13.4878 7.11802 11.8389 5.57907 11.8115 3.62789C11.784 1.67672 13.3504 0.0553188 15.3565 0.000356141C17.3352 -0.0271252 19.0116 1.53931 19.0391 3.49049ZM8.89842 23.0572C8.84485 23.0955 8.80194 23.1252 8.7679 23.1488C8.6797 23.21 8.65109 23.2298 8.65109 23.2496C9.21141 27.9869 7.05726 31.8743 4.90123 35.7652C4.73088 36.0727 4.56052 36.3801 4.39149 36.688C4.17164 37.0865 3.95866 37.4918 3.74568 37.8972C3.5327 38.3025 3.31972 38.7079 3.09987 39.1063C2.63269 40.0132 1.91817 40.2056 1.03877 39.7934C0.104403 39.3537 -0.252855 38.6666 0.186846 37.6773C0.531814 36.9062 0.865544 36.1314 1.1991 35.3569C1.769 34.0337 2.33839 32.7117 2.96246 31.4116C3.73194 29.8177 4.08919 28.1413 4.08919 26.3825C4.08919 23.9092 4.08919 21.4633 4.2266 18.99C4.26188 18.3196 4.44442 17.6718 4.62876 17.0176L4.62877 17.0176C4.73157 16.6527 4.83492 16.2859 4.91363 15.9121L6.80985 7.75014C7.19459 6.18371 8.07398 5.55164 9.58546 5.96386C11.0694 6.40356 12.526 6.98066 13.955 7.58525C14.3084 7.73673 14.6155 8.07375 14.8975 8.38325L14.9718 8.46466C15.7632 9.34159 16.5379 10.2352 17.3608 11.1843L17.3608 11.1843C17.5952 11.4546 17.8335 11.7295 18.0772 12.0097C18.471 11.6068 18.8465 11.2313 19.2067 10.8711L19.207 10.8708C19.9276 10.1502 20.5871 9.49063 21.2101 8.79443C21.4024 8.60206 21.32 8.05244 21.2101 7.72266C20.6055 5.85393 21.3749 4.17757 23.1063 3.62794C24.7002 3.13328 26.3766 4.12261 26.7888 5.79897C27.2285 7.47533 26.1567 9.01428 24.3704 9.48147C23.9307 9.59139 23.4635 9.8662 23.1338 10.196C21.8421 11.57 20.6055 12.9716 19.3688 14.4006C18.6818 15.1976 17.9947 15.1976 17.2253 14.593C16.4325 13.9867 15.6594 13.3409 14.839 12.6555C14.6926 12.5331 14.5446 12.4095 14.3947 12.2846C14.1429 12.8931 13.8929 13.4909 13.646 14.0812L13.6457 14.0818C12.9227 15.8107 12.2266 17.4752 11.5916 19.1549C11.4542 19.5122 11.7565 20.1717 12.0863 20.474C12.8897 21.2651 13.721 22.034 14.5526 22.8031L14.5526 22.8032C15.5698 23.744 16.5874 24.6852 17.555 25.668C17.9947 26.1077 18.352 26.9596 18.2696 27.5642C18.0968 29.2759 17.8523 30.9876 17.6078 32.6992C17.4244 33.983 17.241 35.2668 17.0879 36.5506C16.9505 37.7598 16.2359 38.0895 15.2191 38.0071C14.0924 37.8972 13.8176 37.2101 13.9275 36.1658C14.1748 33.9398 14.3672 31.7139 14.5321 29.4604C14.5596 29.0207 14.5871 28.4436 14.3122 28.1963C13.0458 26.9298 11.6882 25.6633 10.3185 24.3855L10.3183 24.3853C9.84535 23.9441 9.37098 23.5016 8.89842 23.0572ZM17.4044 15.5586C17.3723 15.5574 17.34 15.5561 17.3077 15.5548C17.1647 15.5548 17.02 15.5565 16.874 15.5582C16.431 15.5634 15.9762 15.5687 15.5214 15.5273C14.642 15.4998 13.7901 15.6098 13.7626 16.7365C13.7351 17.8632 14.5596 18.0556 15.4665 18.0281C15.78 18.0281 16.0904 18.0312 16.3988 18.0343C17.0094 18.0404 17.612 18.0464 18.2146 18.0281C19.2314 17.9732 20.0558 18.0556 20.8253 18.99C21.7597 20.1717 23.6559 20.0068 24.7551 18.9625C25.8819 17.8632 25.9643 16.0495 24.975 14.8403C24.0131 13.6586 22.062 13.2464 21.1001 14.3731C19.9994 15.6618 18.7675 15.6128 17.4044 15.5586Z" fill="white"/>
</svg>