<svg width="42" height="26" viewBox="0 0 42 26" fill="none" xmlns="http://www.w3.org/2000/svg">
<path fill-rule="evenodd" clip-rule="evenodd" d="M5.93985 15.7919V15.792V15.792V15.792V15.792C5.94756 16.1533 5.95528 16.5155 5.9784 16.8777L5.99508 17.0777C6.12833 18.6759 6.25987 20.2535 6.34876 21.8312C6.4182 22.8497 5.77008 23.6135 4.95993 23.6135C4.12663 23.6135 3.52481 22.8728 3.5711 21.8312C3.59672 21.3145 3.62077 20.7971 3.64484 20.2791L3.64484 20.279C3.75124 17.9892 3.85809 15.6897 4.10349 13.4056C4.24237 11.9705 4.0109 10.7437 3.15445 9.60952C2.34431 8.54475 2.04339 7.3874 2.11283 6.04486C2.20542 4.77177 2.18228 3.49868 2.11283 2.22559C2.09623 1.89342 1.9247 1.58509 1.75217 1.27494C1.68424 1.15283 1.61615 1.03044 1.5573 0.906204C1.50061 1.0601 1.4269 1.20832 1.35405 1.35484C1.21869 1.62705 1.08626 1.89339 1.07121 2.1793C1.03857 2.73428 1.04685 3.29438 1.05517 3.8572C1.06455 4.49154 1.07398 5.12932 1.02492 5.7671C0.886037 7.61887 1.32583 9.21602 2.3906 10.7669C2.7841 11.3456 2.94613 12.202 2.92298 12.9196C2.86849 14.2819 2.77295 15.639 2.67743 16.9959C2.57007 18.5209 2.46274 20.0455 2.41375 21.5766C2.3906 22.3867 2.64522 23.3589 3.08501 23.9839C3.73313 24.8635 4.82105 25.0718 5.90896 24.5857C7.02002 24.0996 7.57555 23.2432 7.50611 22.0164C7.43647 20.6733 7.35401 19.3345 7.27157 17.9964L7.27157 17.9963L7.27157 17.9962C7.16221 16.2209 7.05292 14.4467 6.97373 12.6649C6.95058 12.0631 7.18205 11.415 7.41353 10.8363C7.57617 10.4425 7.79263 10.0614 8.00789 9.68246C8.37468 9.03666 8.73798 8.39704 8.8255 7.71146C9.02061 6.09207 8.95258 4.42335 8.88481 2.76073V2.76073V2.76072V2.76072V2.76071L8.88481 2.76068L8.88481 2.76064L8.88481 2.76061L8.8848 2.76057C8.87217 2.45075 8.85955 2.14113 8.84865 1.83209C8.84865 1.61545 8.67279 1.40916 8.49396 1.19938L8.49396 1.19938L8.49396 1.19938C8.40528 1.09536 8.31588 0.990478 8.24682 0.883057C8.18394 1.00096 8.10504 1.1162 8.02735 1.22968C7.87625 1.45036 7.72972 1.66437 7.71444 1.87838C7.6946 2.5728 7.70027 3.26721 7.70593 3.96162C7.71349 4.88751 7.72105 5.81339 7.66814 6.73928C7.5987 7.54943 7.39038 8.42902 6.97373 9.10028C6.07099 10.5123 5.44602 11.9011 5.77008 13.6371C5.90904 14.3474 5.92441 15.0679 5.93985 15.7919ZM22.4823 0.952518C15.7233 0.906224 10.4227 6.06803 10.3995 12.7807C10.3764 19.4702 15.6539 24.8172 22.2971 24.8403C28.8015 24.8635 34.241 19.5397 34.3105 13.0816C34.3799 6.39209 29.1255 0.998813 22.4823 0.952518ZM33.13 12.8501C33.13 18.7527 28.2922 23.5673 22.3666 23.5904C16.3715 23.6136 11.6032 18.8452 11.6032 12.8038C11.6032 7.01706 16.4641 2.10987 22.2508 2.08673C28.1302 2.06358 33.13 7.01706 33.13 12.8501ZM40.9537 12.2483V22.2015C40.9537 23.3589 40.3982 24.1922 39.3566 24.6551C38.3149 25.1181 37.2502 24.9329 36.6252 24.0996C36.1391 23.4746 35.8382 22.4793 35.9308 21.7154C36.0619 20.3465 36.3029 18.9867 36.5443 17.6245C36.6866 16.8216 36.8291 16.018 36.9493 15.2111C37.0187 14.7482 37.0187 14.1463 36.7872 13.776C35.329 11.415 35.3753 9.05396 36.5095 6.62352C37.0566 5.45368 37.5423 4.26846 38.0291 3.0804C38.1395 2.81098 38.25 2.54142 38.3612 2.27186C38.6853 1.508 39.1019 0.813589 40.0278 0.998765C41 1.18394 41 1.99409 41 2.82739C40.9445 5.28952 40.9482 7.81088 40.9519 10.3441C40.9528 10.9783 40.9537 11.6133 40.9537 12.2483ZM39.6343 2.68851C39.5102 2.81262 39.4092 2.89514 39.3313 2.95878C39.2349 3.03757 39.1738 3.08743 39.1482 3.15145L39.1481 3.15178C38.4537 4.86456 37.7594 6.57733 37.1113 8.31326C36.5789 9.70208 36.6946 11.0909 37.4816 12.3177C38.2224 13.4751 38.3381 14.6324 38.0603 15.9518C37.6668 17.9193 37.3428 19.8868 37.065 21.8775C36.903 23.058 37.9214 23.9376 38.8705 23.5209C39.7038 23.1506 39.8195 22.4099 39.8195 21.5997C39.8195 18.6253 39.8253 15.6567 39.8311 12.6881C39.8369 9.71944 39.8427 6.75082 39.8427 3.77642C39.8427 3.58688 39.7967 3.39734 39.7396 3.16153L39.7396 3.16149L39.7396 3.16142L39.7395 3.16128C39.706 3.02278 39.6686 2.86831 39.6343 2.68851ZM4.48646 4.46495V4.46494V4.46493C4.48017 4.24484 4.47384 4.02326 4.47384 3.79958C4.46612 3.56789 4.4687 3.33621 4.47127 3.10538C4.47642 2.64437 4.48152 2.18679 4.4044 1.73949C4.38829 1.53007 4.21523 1.34307 4.04126 1.1551C3.96525 1.07297 3.88906 0.990647 3.82572 0.906189C3.76602 0.979152 3.69302 1.05401 3.6187 1.13023L3.6187 1.13024C3.43365 1.32 3.24041 1.51817 3.2239 1.71634C3.15445 3.15146 3.15445 4.56343 3.2239 5.97541C3.23903 6.15699 3.41243 6.32868 3.58891 6.50341C3.68239 6.59597 3.77673 6.68937 3.84887 6.78556C3.91822 6.69308 4.00297 6.60574 4.08688 6.51926C4.25502 6.34597 4.41981 6.17614 4.45069 5.97541C4.51532 5.47455 4.501 4.97369 4.48646 4.46496V4.46495ZM6.63909 4.54153V4.54154C6.65365 5.02554 6.66811 5.50613 6.60338 5.97541C6.57176 6.18097 6.41051 6.35412 6.24509 6.53176C6.16835 6.61417 6.09072 6.69754 6.0247 6.78556C5.96058 6.69739 5.87425 6.61199 5.78879 6.52745C5.62744 6.36785 5.46917 6.2113 5.46917 6.04485C5.42288 4.58658 5.44603 3.12831 5.49232 1.69319C5.49232 1.52226 5.63836 1.35133 5.79039 1.1734C5.86483 1.08628 5.94069 0.997485 6.00156 0.906189C6.06695 0.993382 6.14375 1.07829 6.21978 1.16236L6.21979 1.16236C6.38597 1.34609 6.54847 1.52577 6.58024 1.71634C6.64963 2.25415 6.64101 2.80497 6.63233 3.35905V3.35906V3.35906C6.62943 3.54424 6.62653 3.72978 6.62653 3.91531C6.62653 4.12426 6.63282 4.33321 6.63909 4.54153ZM24.6581 21.1831C28.2691 20.2803 30.9542 16.7388 30.8847 12.9658C30.8384 9.49378 29.3339 6.80872 26.4405 5.28101C24.2646 4.1468 21.9499 3.91533 19.6121 4.72548C19.4081 4.78822 19.2467 5.01042 19.0846 5.23359C19.0075 5.33973 18.9303 5.4461 18.8482 5.53562C18.9773 5.56789 19.1035 5.60578 19.2289 5.64341C19.4634 5.71377 19.6948 5.78323 19.9361 5.81339C20.0662 5.82784 20.2053 5.77912 20.3478 5.72922C20.4335 5.6992 20.5205 5.66875 20.6074 5.65136C22.5518 5.25786 24.4267 5.46618 26.1627 6.53095C29.1487 8.38272 30.6069 12.364 29.3339 15.3732C27.7367 19.1693 24.1026 21.0673 20.3759 20.0257C15.9317 18.7989 13.3623 13.6371 15.8622 9.19287C15.9884 8.97216 15.9534 8.6548 15.9183 8.33589C15.9019 8.18656 15.8854 8.03689 15.8854 7.89663C15.7671 7.98339 15.6273 8.05939 15.487 8.13564C15.2157 8.28316 14.9427 8.43158 14.8206 8.66049C13.2929 11.4381 13.2929 14.2389 14.7743 17.0397C16.6029 20.4887 20.6768 22.2016 24.6581 21.1831Z" fill="white" stroke="white" stroke-width="0.4"/>
</svg>
