<svg width="36" height="37" viewBox="0 0 36 37" fill="none" xmlns="http://www.w3.org/2000/svg">
<path d="M35.5674 19.1324C34.009 18.6608 32.3685 18.3942 30.7485 18.1891C29.7847 18.0661 28.8004 18.1481 27.8161 18.1686C27.488 18.1686 27.0164 18.1071 26.8728 18.2917C25.909 19.481 24.7197 18.9069 23.5918 18.9069C23.5918 16.8562 23.5508 14.9081 23.6123 12.9601C23.6533 11.8527 23.3868 11.3811 22.1564 11.4016C19.4086 11.4836 16.6607 11.4836 13.9129 11.4016C12.58 11.3606 12.1083 11.7092 12.1904 13.1036C12.3134 14.9902 12.2314 16.8972 12.2314 18.9889C8.62228 18.9889 5.13623 19.0504 1.65017 18.9684C0.358277 18.9274 -0.0723535 19.2965 0.00967141 20.6089C0.0711901 21.5932 0.337771 22.1058 1.40409 22.0033C1.83472 21.9623 2.28586 22.0443 2.69599 22.0648C2.7575 22.2904 2.81902 22.3724 2.81902 22.4544C2.83953 26.125 2.83953 29.8162 2.83953 33.4868C2.83953 36.3371 2.83953 36.2756 5.62837 36.2756C6.6947 36.2756 7.0228 35.886 6.98178 34.9017C6.94077 33.8149 6.96128 32.7486 6.96128 31.7232C14.5896 31.7232 21.9513 31.7232 29.4156 31.7232C29.4156 32.9536 29.4361 34.0199 29.4156 35.1478C29.3951 35.968 29.7232 36.3371 30.5844 36.2961C30.9946 36.2756 31.4252 36.2346 31.8353 36.2961C32.9632 36.4192 33.2913 35.886 33.2708 34.8197C33.2092 32.7691 33.2502 30.7184 33.2502 28.6678C33.2502 26.4942 33.2502 24.3205 33.2502 22.0033C33.9885 22.0033 34.6242 22.1263 35.1778 21.9623C35.5469 21.8392 35.9776 21.3266 35.9981 20.9575C36.0186 20.3013 35.875 19.2145 35.5674 19.1324Z" fill="white"/>
<path d="M18.0347 8.12063C20.3314 8.12063 22.0949 6.37761 22.1154 4.10142C22.1359 1.82523 20.3519 0.0206793 18.0757 0.000173046C15.82 -0.0203332 13.9949 1.78421 13.9949 4.0604C13.9949 6.33659 15.7585 8.10013 18.0347 8.12063Z" fill="white"/>
<path d="M18.7729 32.9331C18.6703 34.3685 18.5883 35.4554 19.8187 35.886C20.4954 36.1116 21.5207 35.9885 22.1154 35.5989C23.0177 35.0247 23.0382 33.9584 22.6485 32.9331C21.3567 32.9331 20.1058 32.9331 18.7729 32.9331Z" fill="white"/>
<path d="M13.5438 33.1382C13.3592 34.1635 13.2772 35.4349 14.4051 35.9065C15.0202 36.1731 15.984 36.1526 16.5992 35.8655C17.6861 35.3529 17.6245 34.143 17.481 33.1177C16.1686 33.1382 14.8972 33.1382 13.5438 33.1382Z" fill="white"/>
<path d="M13.5027 9.96636C16.5172 9.96636 19.5521 9.96636 22.6485 9.96636C20.6594 8.1208 15.1227 8.32586 13.5027 9.96636Z" fill="white"/>
<path d="M10.8165 17.4921C10.8165 15.9336 10.8165 14.5597 10.8165 13.2063C9.79116 14.4777 8.9299 15.7286 9.66812 17.287C9.75014 17.4921 10.4063 17.4306 10.8165 17.4921Z" fill="white"/>
<path d="M26.3807 17.0817C26.9548 15.5642 25.9705 14.3749 25.1503 12.8779C25.1503 14.621 25.1503 15.9949 25.1503 17.6559C25.5809 17.4303 26.2781 17.3483 26.3807 17.0817Z" fill="white"/>
</svg>
