<svg width="20" height="19" viewBox="0 0 20 19" fill="none" xmlns="http://www.w3.org/2000/svg">
<path d="M10 0.00443197C7.43216 -0.0731243 4.93819 0.869826 3.06401 2.62687C1.18982 4.38392 0.0880995 6.81194 0 9.37943C0.0880995 11.9469 1.18982 14.3749 3.06401 16.132C4.93819 17.889 7.43216 18.832 10 18.7544C12.5678 18.832 15.0618 17.889 16.936 16.132C18.8102 14.3749 19.9119 11.9469 20 9.37943C19.9119 6.81194 18.8102 4.38392 16.936 2.62687C15.0618 0.869826 12.5678 -0.0731243 10 0.00443197ZM10 17.1919C7.84646 17.2697 5.74976 16.4915 4.16855 15.0274C2.58734 13.5633 1.65033 11.5326 1.5625 9.37943C1.65033 7.22628 2.58734 5.19555 4.16855 3.73147C5.74976 2.26738 7.84646 1.48912 10 1.56693C12.1535 1.48912 14.2502 2.26738 15.8314 3.73147C17.4127 5.19555 18.3497 7.22628 18.4375 9.37943C18.3497 11.5326 17.4127 13.5633 15.8314 15.0274C14.2502 16.4915 12.1535 17.2697 10 17.1919Z" fill="white"/>
<path d="M9.9749 14.0169C10.4996 14.0169 10.9249 13.5916 10.9249 13.0669C10.9249 12.5422 10.4996 12.1169 9.9749 12.1169C9.45023 12.1169 9.0249 12.5422 9.0249 13.0669C9.0249 13.5916 9.45023 14.0169 9.9749 14.0169Z" fill="white"/>
<path d="M12.1625 5.31694C11.5434 4.84243 10.7798 4.59528 10 4.61694C9.62365 4.59503 9.24664 4.64803 8.89086 4.77286C8.53509 4.89769 8.20762 5.09188 7.92742 5.34417C7.64723 5.59646 7.41988 5.90184 7.25855 6.24262C7.09721 6.5834 7.0051 6.95281 6.98755 7.32944V7.46694H8.53755V7.34194C8.56326 6.97717 8.73067 6.63695 9.00397 6.39401C9.27728 6.15107 9.63479 6.02471 10 6.04194C10.1763 6.02062 10.3552 6.03712 10.5246 6.09032C10.694 6.14352 10.8501 6.23221 10.9826 6.35048C11.1151 6.46875 11.2208 6.61388 11.2928 6.77622C11.3648 6.93855 11.4013 7.11436 11.4 7.29194C11.4 7.72944 11.1 8.20444 10.425 8.67944C10.0906 8.86735 9.80398 9.1297 9.58722 9.44616C9.37046 9.76263 9.22943 10.1247 9.17505 10.5044V10.9544H10.725V10.6294C10.7363 10.3881 10.8391 10.1601 11.0125 9.99194C11.2101 9.76841 11.4277 9.56339 11.6625 9.37944L11.875 9.20444C12.223 8.97825 12.5092 8.66898 12.7078 8.30455C12.9064 7.94011 13.0111 7.53196 13.0125 7.11694C13.0138 6.77255 12.9382 6.43221 12.7911 6.1208C12.6441 5.80938 12.4293 5.53474 12.1625 5.31694Z" fill="white"/>
</svg>
