<svg width="24" height="19" viewBox="0 0 24 19" fill="none" xmlns="http://www.w3.org/2000/svg">
<path fill-rule="evenodd" clip-rule="evenodd" d="M12.0054 0C15.667 0 18.7929 2.30089 20.0196 5.53661C22.3098 6.14196 24 8.23125 24 10.7143C24 13.6741 21.6027 16.0714 18.6455 16.0714H17.5714C17.4536 16.0714 17.3571 15.975 17.3571 15.8571V14.25C17.3571 14.1321 17.4536 14.0357 17.5714 14.0357H18.6455C19.0815 14.0369 19.5134 13.9515 19.9162 13.7846C20.3189 13.6177 20.6846 13.3726 20.992 13.0634C21.6187 12.4366 21.9643 11.6009 21.9643 10.7143C21.9643 9.20893 20.9491 7.88839 19.4973 7.49732L18.4848 7.22946L18.1152 6.25179C17.8848 5.64375 17.5634 5.07054 17.1589 4.55357C16.7598 4.04196 16.2884 3.59196 15.7554 3.21696C14.6545 2.44286 13.358 2.03304 12.0054 2.03304C10.6527 2.03304 9.35625 2.44286 8.25536 3.21696C7.72407 3.59076 7.25108 4.04118 6.85179 4.55357C6.44732 5.07054 6.12589 5.64107 5.89554 6.25179L5.52321 7.23214L4.50804 7.49732C3.81161 7.68214 3.18482 8.09732 2.7375 8.66786C2.30089 9.22768 2.05982 9.89196 2.03571 10.5991C2.00625 11.5045 2.34107 12.3777 2.97054 13.0259C3.60268 13.6768 4.45179 14.0357 5.35446 14.0357H6.42857C6.54643 14.0357 6.64286 14.1321 6.64286 14.25V15.8571C6.64286 15.975 6.54643 16.0714 6.42857 16.0714H5.35446C2.39732 16.0714 0 13.6741 0 10.7143C0 8.22857 1.69554 6.13661 3.99107 5.53393C5.21786 2.29821 8.34375 0 12.0054 0ZM12.0939 7.94836C12.1231 7.9626 12.1487 7.98332 12.1687 8.00893L15.1687 11.8071C15.2786 11.9464 15.1795 12.1527 15 12.1527H13.0152V18.6429C13.0152 18.7607 12.9188 18.8571 12.8009 18.8571H11.1937C11.0759 18.8571 10.9795 18.7607 10.9795 18.6429V12.15H9C8.95989 12.1501 8.92056 12.1389 8.88651 12.1177C8.85246 12.0965 8.82507 12.0661 8.80747 12.0301C8.78987 11.994 8.78276 11.9537 8.78697 11.9138C8.79117 11.874 8.80652 11.836 8.83125 11.8045L11.8313 8.00893C11.8513 7.98332 11.8769 7.9626 11.9061 7.94836C11.9354 7.93411 11.9675 7.92671 12 7.92671C12.0325 7.92671 12.0646 7.93411 12.0939 7.94836Z" fill="white"/>
</svg>
