<svg width="31" height="40" viewBox="0 0 31 40" fill="none" xmlns="http://www.w3.org/2000/svg">
<path fill-rule="evenodd" clip-rule="evenodd" d="M18.2693 3.08584C18.2419 1.39272 16.8492 0.0273083 15.1288 0C13.4084 0 11.9883 1.33811 11.961 3.03122C11.9064 4.77895 13.3265 6.2536 15.0742 6.28091C16.7946 6.30822 18.2966 4.80626 18.2693 3.08584ZM12.8622 33.2826C13.3902 30.4547 13.9181 27.6269 14.4461 24.8232C15.5384 24.4409 15.8388 24.8778 16.0573 25.6698C17.1149 29.1071 18.1904 32.5267 19.2692 35.9572C19.5274 36.7783 19.7859 37.6 20.0443 38.4228C20.4539 39.7336 21.2186 40.2251 22.229 39.8974C23.294 39.5697 23.7855 38.5866 23.4851 37.385C23.4331 37.1595 23.359 36.9449 23.2838 36.7273L23.2838 36.7273L23.2838 36.7272C23.2407 36.6024 23.1972 36.4767 23.1574 36.3473L23.1574 36.3473L23.1574 36.3472C21.9012 32.3603 20.6451 28.3733 19.4162 24.3863C19.2524 23.8401 19.1704 23.2394 19.1704 22.6659C19.1704 21.2549 19.1735 19.844 19.1765 18.4331C19.1826 15.6112 19.1886 12.7894 19.1704 9.96752C19.1431 8.49287 18.2693 7.61901 16.7946 7.53708C15.7569 7.50977 14.6919 7.50977 13.6542 7.53708C11.8518 7.56439 11.0053 8.43826 11.0053 10.2406V21.9832C11.0053 22.1518 11.0074 22.3216 11.0096 22.492C11.0183 23.1768 11.0272 23.8723 10.896 24.5501C10.1587 28.6464 9.36676 32.7699 8.57482 36.8662C8.21981 38.7505 8.62943 39.6789 9.85831 39.952C11.0872 40.1978 11.7153 39.5151 12.0703 37.5216C12.3343 36.1106 12.5983 34.6966 12.8622 33.2826ZM19.9897 10.8959C19.9413 10.3795 19.8833 9.87262 19.8271 9.38092L19.827 9.38051C19.7881 9.04029 19.7501 8.70735 19.7166 8.38353C20.5133 8.38353 21.303 8.38007 22.0881 8.37664H22.0881C24.4245 8.36642 26.719 8.35638 29.0287 8.43814C29.4656 8.46545 30.0937 9.20278 30.2303 9.72163C30.2849 9.99472 29.493 10.814 29.0833 10.8413C26.6614 10.9067 24.2743 10.9025 21.8386 10.8981H21.8385H21.8382C21.2255 10.897 20.6098 10.8959 19.9897 10.8959ZM10.3772 10.2807C10.4409 9.65528 10.5046 9.02992 10.5683 8.52018C9.7584 8.52018 8.95368 8.51673 8.15325 8.5133C5.76903 8.50308 3.42303 8.49302 1.09233 8.5748C0.682707 8.5748 0 9.2302 0 9.58521C0 9.99483 0.600782 10.7595 0.95579 10.7595C3.44545 10.825 5.9351 10.8206 8.43873 10.8163C9.06571 10.8152 9.69358 10.8141 10.3225 10.8141C10.3407 10.6381 10.3589 10.4594 10.3772 10.2807Z" fill="white"/>
</svg>
