<svg width="44" height="40" viewBox="0 0 44 40" fill="none" xmlns="http://www.w3.org/2000/svg">
<path fill-rule="evenodd" clip-rule="evenodd" d="M23.7778 5.09852L23.7784 5.09862C23.7784 4.51411 23.4212 4.27343 23.0228 4.03962C22.8923 3.96398 22.7412 3.79206 22.7206 3.64765C22.4595 1.63968 20.9758 0.140569 19.1005 0.00991319C17.1839 -0.12762 15.4254 1.17894 14.9102 3.11815C14.8941 3.17472 14.8874 3.23366 14.8805 3.29498C14.8756 3.33802 14.8706 3.38223 14.8621 3.4276C15.0655 3.47161 15.2512 3.51563 15.437 3.55964C15.4834 3.57064 15.5298 3.58164 15.5765 3.59264C14.7866 5.9307 16.3734 7.71862 17.9808 8.06245C19.547 8.39941 21.8138 7.44356 21.9924 4.8098C22.583 4.90604 23.1804 5.00228 23.7778 5.09852ZM4.23538 15.276C4.73684 15.3585 5.16273 15.2004 5.54054 14.829L5.60642 14.8757C6.24211 15.3265 6.85212 15.759 7.43646 16.2044C7.39727 16.2811 7.35977 16.3558 7.32312 16.4287C7.21203 16.6499 7.10876 16.8554 6.98996 17.0571C6.70145 17.5453 6.51598 18.0611 6.44729 18.6318C6.36485 19.292 6.27555 19.9521 6.11069 20.5917C5.95711 21.1765 5.80551 21.7617 5.65393 22.3468C5.114 24.4309 4.57441 26.5136 3.94688 28.5754C3.28939 30.7465 2.56181 32.9 1.83422 35.0535C1.54319 35.9149 1.25216 36.7763 0.965618 37.6388C0.649632 38.5947 1.13048 39.5918 2.07844 39.9081C3.01266 40.2176 3.97435 39.7225 4.29721 38.7666C4.59946 37.8658 4.9017 36.9649 5.19708 36.0641C5.42235 35.3835 5.65241 34.7041 5.88249 34.0247C6.43118 32.4044 6.97995 30.7838 7.46394 29.1462C7.98448 27.3899 8.44753 25.6166 8.91004 23.8455C9.1067 23.0924 9.30326 22.3397 9.50411 21.5888C9.52076 21.5262 9.54246 21.4663 9.56769 21.3965C9.58407 21.3512 9.60194 21.3018 9.62088 21.2449C9.68332 21.3167 9.7442 21.3822 9.80222 21.4447C9.91653 21.5677 10.0197 21.6788 10.1017 21.8019C11.7229 24.2432 13.344 26.6912 14.9514 29.1393C15.0201 29.2493 15.0545 29.4213 15.0339 29.5519C14.5461 32.3301 14.0516 35.1014 13.557 37.8726C13.3852 38.8354 13.976 39.7637 14.9033 39.9563C15.8994 40.1626 16.8061 39.5643 16.9985 38.5672C17.2286 37.3654 17.4542 36.1625 17.6799 34.9593C18.0134 33.1816 18.347 31.4033 18.6952 29.6276C18.8188 28.988 18.7364 28.4448 18.3723 27.9015C17.4697 26.5505 16.5726 25.1913 15.6757 23.8324C15.1529 23.0403 14.6302 22.2483 14.1065 21.4581C14.0951 21.4398 14.083 21.4215 14.071 21.4034C13.975 21.2578 13.8813 21.1158 14.1134 20.963C14.1399 20.9801 14.1665 20.9966 14.1929 21.0131C14.2621 21.0563 14.3304 21.0989 14.395 21.1487L14.3951 21.1487C15.5972 22.0083 16.7993 22.8678 18.0082 23.7137C18.2487 23.8787 18.3517 24.0575 18.3654 24.3532C18.3998 25.3159 19.334 25.9211 20.2201 25.5635C20.4125 25.4878 20.5293 25.5085 20.6804 25.6185C22.2122 26.7187 23.7508 27.812 25.2895 28.9054L25.2897 28.9055C25.338 28.9394 25.3864 28.9801 25.4371 29.0228C25.4585 29.0408 25.4802 29.0591 25.5026 29.0774C25.3502 29.2851 25.1998 29.4908 25.0499 29.6958C24.7133 30.1559 24.3795 30.6123 24.0326 31.0785C24.4613 31.3719 24.8685 31.6566 25.278 31.9429C25.3869 32.0191 25.496 32.0953 25.6056 32.1719C23.7372 34.4137 22.3496 36.8755 21.6009 39.7018H43.6649C43.6529 39.6537 43.6426 39.609 43.6328 39.5665C43.6145 39.4873 43.598 39.4158 43.5756 39.3442C42.5452 35.9953 40.8073 33.0728 38.3138 30.6109C37.1803 29.4969 35.9233 28.5479 34.4189 27.9703C33.2511 27.5233 32.0971 27.4958 30.9431 27.9978C30.7478 28.0838 30.5547 28.1743 30.3575 28.2667C30.2079 28.3368 30.056 28.408 29.8989 28.4792C29.3219 27.5508 28.5594 26.815 27.6252 26.2099C27.2954 26.6546 26.9717 27.0933 26.6481 27.532C26.4863 27.7512 26.3246 27.9704 26.1621 28.1903L26.1619 28.1903C26.0383 28.1078 25.9353 28.039 25.8323 27.9634C25.2205 27.5309 24.6098 27.0959 23.9993 26.661C23.1637 26.0658 22.3285 25.4708 21.491 24.8827C21.2231 24.697 21.0994 24.5182 21.0788 24.1538C20.914 20.6199 20.7256 17.0908 20.5371 13.5586C20.4978 12.8224 20.4585 12.086 20.4194 11.3495C20.385 10.7306 20.1102 10.2973 19.5607 10.0085C18.6694 9.54476 17.7793 9.07974 16.8888 8.61454C15.6931 7.98987 14.4968 7.36487 13.2959 6.74212C13.083 6.63209 12.8494 6.55645 12.6159 6.52207C10.6581 6.247 8.7004 5.98569 6.73579 5.73126C5.9527 5.62811 5.39629 6.02007 5.16273 6.79026C5.00818 7.31286 4.85535 7.83375 4.70251 8.35464C4.54966 8.87556 4.39682 9.39648 4.24225 9.91913L4.24206 9.91979C4.02918 10.6416 3.81629 11.3634 3.59654 12.1059C3.51674 12.0495 3.44977 12.006 3.38905 11.9665C3.36092 11.9482 3.33413 11.9308 3.30803 11.9134C3.2795 11.8929 3.25158 11.8725 3.2239 11.8523C3.15828 11.8044 3.09403 11.7575 3.0264 11.7139C2.75162 11.542 2.43564 11.597 2.26391 11.8377C2.09218 12.0784 2.14026 12.3878 2.40129 12.5941C2.57989 12.7385 2.75849 12.883 2.9577 12.993C3.205 13.1305 3.25995 13.2818 3.17752 13.5706C2.95083 14.3546 3.45916 15.1454 4.23538 15.276ZM8.71619 8.75694C9.53142 8.86698 10.3467 8.97702 11.1802 9.08705C10.2505 10.8709 9.33112 12.6289 8.40415 14.4014C8.26268 14.6719 8.12102 14.9428 7.97913 15.2141C7.86963 15.1372 7.76073 15.0608 7.65238 14.9848C7.12181 14.6128 6.60464 14.2501 6.09695 13.8732C6.03513 13.8319 6.00078 13.6944 6.02139 13.6188C6.50224 11.9546 6.98996 10.2905 7.49141 8.59194C7.9012 8.64694 8.3087 8.70194 8.71619 8.75694ZM17.8159 14.0864C17.967 16.8714 18.1182 19.6633 18.2693 22.5584C17.0053 21.6575 15.817 20.8117 14.608 19.9521C15.1559 18.9196 15.702 17.8964 16.2462 16.8767C16.7458 15.9405 17.2439 15.0074 17.7403 14.0726C17.7541 14.0761 17.7661 14.0778 17.7781 14.0795C17.7902 14.0812 17.8022 14.0829 17.8159 14.0864Z" fill="white"/>
</svg>
