<svg width="38" height="40" viewBox="0 0 38 40" fill="none" xmlns="http://www.w3.org/2000/svg">
<path d="M5.75669 5.25877C5.75669 6.6627 5.7329 7.61451 5.75669 8.56633C5.78049 9.56573 5.25699 10.0178 4.35276 10.113C4.30517 10.113 4.28138 10.113 4.23378 10.113C-0.453902 10.1368 -0.00177807 10.3986 0.0220173 6.25818C0.0220173 4.66389 0.0458127 3.0934 0.0220173 1.49911C0.0220173 0.547292 0.497913 0.0951822 1.37834 0.0475915C2.37775 7.26886e-07 3.35336 7.26886e-07 4.35276 0.0475915C5.28078 0.0951822 5.80428 0.547293 5.78048 1.57049C5.73289 2.52231 5.78048 3.47412 5.78048 4.49732C14.5134 4.49732 23.1511 4.49732 32.003 4.49732C32.003 3.54551 32.0268 2.5699 32.003 1.61808C31.9792 0.571087 32.5027 0.0713854 33.5021 0.0237946C34.5015 -7.25113e-07 35.4771 -0.0237946 36.4765 0.0475915C37.3093 0.0951822 37.7853 0.547291 37.7615 1.42772C37.7615 3.85485 37.7615 6.25818 37.7615 8.68531C37.7615 9.56573 37.2618 10.0178 36.4527 10.0654C35.4295 10.1368 34.3825 10.1368 33.3593 10.0654C32.5027 10.0178 31.9792 9.54194 32.003 8.59013C32.0268 7.61452 32.003 6.61511 32.003 5.56811C31.5985 5.54432 31.2891 5.52052 31.0274 5.52052C30.9322 5.59191 30.8608 5.6395 30.8132 5.71088C30.5753 6.1392 30.4087 6.6627 30.0756 7.01963C28.981 8.23319 27.934 9.47056 26.6966 10.5413C23.1273 13.6585 22.4848 17.9417 21.7234 22.2249C21.6996 22.4152 21.7472 22.6056 21.7948 22.796C23.3415 27.3171 24.0553 32.0048 24.674 36.7162C24.7692 37.3349 24.8882 38.0012 24.793 38.5961C24.6978 39.0958 24.2933 39.5241 24.0315 40C23.6032 39.6669 22.9607 39.4051 22.818 38.9768C21.9851 36.5497 21.2237 34.075 20.5098 31.624C19.8435 29.3635 19.2963 27.0553 18.7965 25.2231C17.702 29.0541 16.4646 33.3135 15.251 37.5491C15.1083 38.0726 14.9655 38.6675 14.6562 39.0958C14.3706 39.4765 13.8709 39.7145 13.4664 40C13.2046 39.5241 12.6811 39.072 12.7049 38.6199C12.7763 37.0018 12.8953 35.3599 13.2284 33.7894C13.9661 30.1487 14.8703 26.5556 15.6556 22.9149C15.7745 22.3676 15.6318 21.749 15.608 21.1779C15.489 18.3938 14.1089 15.9905 13.3474 13.3968C13.2522 13.0875 12.9429 12.8257 12.7049 12.564C11.0631 10.8269 9.42117 9.13742 7.80309 7.37656C7.39857 6.94824 7.11302 6.42475 6.7323 5.97263C6.58953 5.75848 6.28019 5.6157 5.75669 5.25877ZM9.20702 5.59191C9.15943 5.68709 9.11185 5.78227 9.06425 5.87746C10.254 6.92445 11.42 7.97144 12.6098 9.01844C13.4664 9.77989 14.4182 10.4938 15.1797 11.3504C15.5842 11.8025 15.8935 11.8977 16.4646 11.8739C17.9637 11.8025 19.4628 11.7787 20.9619 11.8977C21.6758 11.9453 22.0565 11.8263 22.5324 11.2552C23.1987 10.4224 24.1267 9.80369 24.9357 9.08983C26.1493 8.01904 27.3867 6.92445 28.6002 5.85366C28.5289 5.78227 28.4813 5.68709 28.4099 5.6157C22.0089 5.59191 15.608 5.59191 9.20702 5.59191Z" fill="#8912FB"/>
<path d="M21.4854 8.87557C21.5092 10.2557 20.3433 11.4693 18.9631 11.5168C17.583 11.5644 16.2743 10.2795 16.298 8.87557C16.298 7.49544 17.5116 6.30566 18.8917 6.30566C20.2957 6.32946 21.4616 7.49544 21.4854 8.87557Z" fill="#8912FB"/>
</svg>
