<svg width="113" height="305" viewBox="0 0 113 305" fill="none" xmlns="http://www.w3.org/2000/svg">
<path d="M21.8 185.8C12.7 192.7 3.10006 188.9 2.20006 177.9C1.00006 162.2 0.300052 146.3 0.600052 130.5C0.900052 119.1 2.80006 107.7 4.70006 96.3C8.00006 77.1 20.3 66.9 38.9 63.5C51.8 61.1 64.8 61.2 77.6001 64.4C93.8 68.4 104.1 78.4 107.6 95C113.3 122.5 114 150.2 110.5 178C109.3 187.5 100.9 192.1 93.6001 187.8C92.5001 187.2 91.2 185 91.5 184.1C99.3 162.4 97.4 140.5 92.8 118.5C91.6 112.5 91.6001 106.2 90.6001 100.2C90.2001 98.2 88.4 95.1 86.9 94.9C83.5 94.4 82.6 97.5 83 100.4C84.6 112.3 86.1 124.2 88 136C90.2 149.9 89.5001 163.5 85.6001 177.1C84.7001 180.3 84.3 183.6 84.1001 186.9C82.2001 221.2 80.5001 255.4 78.6001 289.7C78.5001 291.4 78.3 293 78.1001 294.7C77.0001 301.8 73.9 304.9 68 304.5C62.3 304.1 60 301 60 293.6C60 259.8 60 225.9 60 192.1C60 190.6 60.4 188.9 59.9 187.7C59.2 186.1 57.6 184.9 56.4 183.6C55.1 185 53.5001 186.3 52.6001 187.9C52.0001 189.1 52.5 190.8 52.5 192.3C52.5 226.5 52.5 260.6 52.5 294.8C52.5 301.8 48.2 305.6 41.8 304.3C37.6 303.5 35.1001 300.9 34.7001 296.5C33.5001 282.9 32.0001 269.3 31.2001 255.7C30.0001 231.9 29.3 208.1 28.3 184.3C28.2 182.8 28.2 181.2 27.8 179.9C21.6 161.8 22.7 143.5 26.3 125.1C27.8 117.3 28.5 109.3 29.4 101.4C29.7 98.5 29.7 95.1 25.8 94.9C21.9 94.7 22.0001 98 21.6001 101C20.1001 112.4 18.5 123.7 16.8 135.1C14.3 152.4 15.7 169.3 21.8 185.8Z" fill="#D7D6D6"/>
<path d="M77.1 25.3999C76.2 35.3999 72.8 43.5999 65.8 50.1999C59.7 55.8999 53.3 55.7999 47.1 50.3999C36.2 40.7999 33.3 20.4999 41.1 8.19994C48 -2.60006 65.5 -2.70006 71.7 8.59994C74.4 13.6999 75.3 19.7999 77.1 25.3999Z" fill="#D7D6D6"/>
</svg>
