<svg width="134" height="305" viewBox="0 0 134 305" fill="none" xmlns="http://www.w3.org/2000/svg">
<path d="M63.5 242.1C63.5 259.6 63.5 277.1 63.5 294.6C63.5 300.9 61.4 303.8 56.6 304.4C51.3 305.1 46.7 302.1 45.7 296.4C43.2 282.3 40.5 268.2 39.2 254C36.7 228.3 35.1 202.6 33.1 176.8C33 175.8 33.1 174.7 32.5 173.9C23.6 161.4 25 147.7 27.9 134C30.3 122.6 33.5 111.4 36.3 100.1C36.8 98 37.3 95.7 36.8 93.7C36.5 92.3 34.7 90.7 33.3 90.4C32.3 90.2 30 91.8 29.8 93C25.8 110.7 21.6 128.3 18.6 146.2C16.7 157.6 19.3 168.7 26.3 178.4C27 179.4 26.9 181.9 26.2 183C23.6 186.7 19.7 188.2 15.3 187.5C11.1 186.9 8.09998 184.4 7.09998 180.3C4.99998 171.2 2.50001 162.2 1.60001 152.9C-0.699986 127.9 2.10003 103.6 14.4 81.2C21.9 67.6 34.2 60.4 48.9 56.9C50.5 56.5 52.8 57.2 54.4 58.1C63.1 63.2 71.7 63.2 80.4 58.1C82.2 57.1 84.9 56.6 86.8 57.1C103.6 61.3 116.4 70.7 123.3 86.9C136.1 117.3 137.1 148.3 127.7 179.8C125.5 187.3 117.6 189.8 111.2 185.6C106.9 182.8 106.5 180.9 109.4 176.5C117.2 164.9 117.3 152 115.4 138.9C114.5 132.7 112.9 126.5 111.4 120.3C109.3 111.4 107.3 102.5 104.9 93.7C104.5 92.2 102.4 91.2 101.1 90C99.9 91.4 97.7 92.8 97.8 94.1C98.2 98.9 99.2 103.6 100.2 108.3C102.8 119.8 106 131.2 108.1 142.8C109.9 153.3 108.9 163.7 102.6 173C101.8 174.1 101.6 175.8 101.6 177.2C101.3 216.5 95.9 255.2 89.5 293.9C89.3 294.9 89.1 295.9 88.8 296.8C87.3 302 82.9 304.9 77.9 304.1C73.2 303.4 71.1 300.6 71.1 294.7C71.1 261.2 71.1 227.7 71.1 194.2C71.1 191.7 71.5 189.1 70.9 186.7C70.5 185.1 68.7 183.9 67.5 182.6C66.2 184 63.9 185.3 63.7 186.9C63.2 192.9 63.4 198.9 63.4 204.9C63.5 217.5 63.5 229.8 63.5 242.1Z" fill="#D7D6D6"/>
<path d="M88.3 27.5C86.2 33.4 84.9 40.3 81.6 45.9C74.8 57.4 60.5 57.5 53.3 46.3C45.6 34.4 45.7 21.7 51.6 9.19996C54.7 2.69996 60.7 0.29996 67.7 0.39996C74.8 0.49996 80.7 3.19996 83.4 9.79996C85.6 15 86.5 20.8 88.3 27.5Z" fill="#D7D6D6"/>
</svg>
