<svg width="106" height="305" viewBox="0 0 106 305" fill="none" xmlns="http://www.w3.org/2000/svg">
<path d="M26.7 201.2C26.7 170.9 26.7 140.6 26.7 110.2C26.7 108.4 27.2 106.3 26.5 104.8C25.8 103.1 24 101.9 22.6 100.5C21.4 102 19.8 103.4 19 105C18.5 106.1 18.9 107.6 18.9 108.9C18.9 133.2 18.9 157.6 18.9 181.9C18.9 187.8 16 190.1 10.1 188.7C4.60002 187.4 1.00001 182.3 0.900007 174.9C0.900007 163.7 0.800016 152.6 1.30002 141.4C1.90002 126.1 2.80002 110.8 3.80002 95.5C4.60002 82.6 11.4 73.3 22.8 68.3C43.2 59.3 63.9 59.2 84.3 68.5C95.3 73.5 102.3 82.5 102.9 94.9C104.2 121.8 105.1 148.8 105.8 175.8C106 184.7 99.6 190.2 92.5 188.8C89.3 188.2 87.8 186.8 87.8 183.1C88 159.4 87.9 135.8 87.9 112.1C87.9 110.4 87.9 108.8 87.9 107.1C87.8 104.1 88.2 100.4 83.9 100.5C79.9 100.6 80.2 104.1 80.2 106.9C80.1 128.2 80.6 149.6 79.9 170.9C78.6 212.5 76.7 254.1 74.9 295.7C74.6 301.7 71.4 304.6 65.7 304.3C60 304.1 57.1 301.1 57.1 294.9C57.1 261.6 57.1 228.2 57.1 194.9C57.1 192.9 57.6 190.7 57 188.9C56.3 186.9 54.9 183.9 53.4 183.6C50.3 183.1 49.5 185.9 49.5 188.7C49.5 193.5 49.5 198.4 49.5 203.2C49.5 233.7 49.5 264.2 49.5 294.7C49.5 300.7 46.9 303.7 41.6 304.2C35.7 304.8 32 301.7 31.7 295.8C30.7 275 29.6 254.2 28.9 233.4C28.5 222.6 28.8 211.8 28.8 200.9C28.2 201.2 27.5 201.2 26.7 201.2Z" fill="#D7D6D6"/>
<path d="M33.4 25.4C34 21.8 34.3 18.1 35.3 14.6C38 4.99999 44.3 0.199993 53.8 0.299993C63 0.399993 69.1 5.19999 71.7 14.7C75 27 73.5 38.5 64.8 48.3C57.7 56.3 49.7 56.4 42.5 48.6C36.5 42.2 33.4 34.4 33.4 25.4Z" fill="#D7D6D6"/>
</svg>
