<svg width="127" height="264" viewBox="0 0 127 264" fill="none" xmlns="http://www.w3.org/2000/svg">
<path fill-rule="evenodd" clip-rule="evenodd" d="M75.8466 40.5833C79.2953 35.4102 80.6748 29.6336 81.4508 23.1672C80.933 21.4702 80.5112 19.7347 80.0925 18.0121C79.2563 14.5713 78.4325 11.1817 76.8812 8.25151C71.3633 -1.836 55.4129 -1.74976 50.1536 8.51016C44.6357 19.2874 44.7219 30.4958 51.5331 40.8419C57.7408 50.2397 69.4664 49.9811 75.8466 40.5833ZM66.7936 163.875V209.14C66.7936 224.659 66.7936 240.178 67.0522 255.697C67.0522 261.474 71.1045 264.491 76.45 262.767C80.1574 261.56 81.8818 258.887 82.6577 255.18C89.9863 220.003 96.3664 184.74 97.6596 148.701C97.6596 147.494 98.0045 146.028 98.7805 145.252C105.764 138.527 107.057 130.078 104.816 121.37C103.256 115.298 101.228 109.334 99.198 103.362C98.0858 100.09 96.9727 96.8166 95.9353 93.5211C94.7282 89.5551 93.5212 85.5028 92.9176 81.4506C92.7988 80.6189 93.6625 79.6235 94.5213 78.6335C94.9089 78.1868 95.2955 77.7412 95.5904 77.3122C95.9599 77.6324 96.3716 77.9385 96.7834 78.2447C97.8127 79.0101 98.842 79.7755 99.2116 80.7609C100.178 83.5591 100.965 86.4174 101.748 89.2648C102.293 91.2428 102.835 93.2155 103.436 95.1593C104.329 98.0213 105.309 100.872 106.291 103.728C108.06 108.873 109.835 114.033 111.11 119.3C113.869 130.854 112.058 141.545 103.005 150.253C102.402 150.856 102.057 152.494 102.315 153.443C103.695 157.926 108.178 160.944 112.834 160.771C117.145 160.599 120.163 158.185 121.628 153.27C129.043 128.353 128.353 103.781 118.611 79.4676C111.972 62.8275 99.9875 52.2227 82.7439 47.5669C81.192 47.1358 78.7779 47.7394 77.4847 48.774C68.6042 56.0163 58.5167 56.0163 49.6362 48.6878C48.4291 47.7394 46.2737 47.1358 44.808 47.4807C28.6852 51.7916 16.6147 61.1894 9.80352 76.7948C-1.14618 101.798 -2.26703 127.319 5.57881 153.356C7.04452 158.271 9.97594 160.685 14.3731 160.771C18.8564 160.944 23.3397 158.012 24.7192 153.788C25.0641 152.667 24.5468 150.684 23.6846 149.822C16.0974 142.148 13.5109 132.837 15.4939 122.49C16.503 117.255 18.112 112.113 19.7132 106.995C20.3009 105.117 20.8874 103.242 21.4429 101.367C21.8493 100.05 22.2526 98.7337 22.6557 97.4177C24.3908 91.7532 26.1227 86.0993 28.0817 80.5022C28.3678 79.6438 29.2238 78.9753 30.0948 78.295C30.5361 77.9504 30.9812 77.6028 31.358 77.2259C31.6831 77.601 32.0878 77.9905 32.4946 78.3819C33.4905 79.3403 34.4981 80.31 34.3756 81.1057C33.5997 85.5891 32.3926 89.9862 31.0131 94.3833C29.978 97.6826 28.858 100.946 27.7395 104.204C25.8768 109.631 24.0183 115.045 22.5638 120.594C20.667 127.663 20.4083 135.596 25.4951 141.2C29.3211 145.332 29.5478 149.667 29.7915 154.327C29.8223 154.918 29.8535 155.514 29.8923 156.115C32.0477 189.74 37.7382 222.848 44.7218 255.697C45.7564 260.784 49.7224 263.629 54.292 263.112C58.6029 262.595 60.2411 260.094 60.2411 253.8V164.996C60.2411 164.688 60.2343 164.374 60.2274 164.057C60.1998 162.774 60.1712 161.446 60.5859 160.34C60.9308 159.392 62.3965 158.271 63.3449 158.185C64.3795 158.185 65.8452 159.133 66.3625 160.081C66.8573 160.93 66.8306 162.067 66.8049 163.162C66.7992 163.403 66.7936 163.642 66.7936 163.875Z" fill="#D7D6D6"/>
</svg>
