<svg width="105" height="305" viewBox="0 0 105 305" fill="none" xmlns="http://www.w3.org/2000/svg">
<path d="M29.8 200.2C29.8 176 29.9 151.9 29.8 127.7C29.8 120 29.4 112.4 29.1 104.7C29 103 29 101.3 28.4 99.8C27.8 98.5 26.4 97.5 25.4 96.4C24.4 97.5 22.8 98.6 22.6 99.8C21.2 109 20.1 118.3 18.9 127.5C16.8 144 14.8 160.6 12.7 177.1C12.1 181.9 9.59999 184.2 5.69999 183.8C1.89999 183.4 -0.100013 180.5 0.299987 175.7C2.29999 152.8 4.19999 129.9 6.29999 107C6.69999 102.6 7.59999 98.1 8.79999 93.8C14.6 72.7 28 62.3 49.8 61.9C54.8 61.8 59.8 62.2 64.7 62.9C78.3 64.9 88.4 72.2 93.2 85.1C96.2 93.1 98 101.7 99 110.2C101.3 131.2 102.9 152.3 104.7 173.4C104.8 174.6 104.8 175.7 104.9 176.9C105.1 180.6 103.5 183.2 99.8 183.7C95.9 184.2 93.4 182.3 92.9 178.3C91.6 168.6 90.4 158.8 89.2 149.1C87.2 133.2 85.3 117.4 83.1 101.5C82.9 100 81.3 98.8 80.3 97.5C79.2 98.9 77.3 100.2 77.1 101.7C76.4 106.6 76.1 111.7 76.1 116.6C77 176.3 74.1 235.9 71 295.4C70.9 296.6 71 297.8 70.7 298.9C69.7 302.6 67.3 304.6 63.4 304.3C59.8 304.1 57.6 301.9 57.1 298.3C56.8 296.5 56.9 294.6 56.9 292.8C56.9 259.6 56.9 226.5 56.9 193.3C56.9 191.8 57.3 190.1 56.8 188.9C56 187.2 54.5 185.8 53.3 184.3C51.9 185.8 50.3 187.2 49.3 189C48.7 190 49.2 191.6 49.2 192.9C49.2 225.9 49.2 258.9 49.2 291.9C49.2 293.2 49.2 294.6 49.2 295.9C49 301.4 46.6 304.4 42.2 304.3C38 304.3 35.5 301.5 35.2 296.3C34.5 283.7 33.9 271 33.3 258.4C32.4 238.9 31.5 219.5 30.6 200C30.1 200.2 30 200.2 29.8 200.2Z" fill="#D7D6D6"/>
<path d="M33.7 25.2C34.1 22.2 34.2999 19.2 34.7999 16.3C37.1999 3.50002 46.0999 -2.19998 58.5999 1.00002C63.3999 2.20002 66.8 5.10002 68.9 9.70002C74.9 22.6 71.7 40.1 61.4 50C55.3 55.9 50.0999 56 44.0999 49.9C37.3999 43.1 33.8 34.9 33.7 25.2Z" fill="#D7D6D6"/>
</svg>
